<svg id="Capa_1" data-name="Capa 1" xmlns="http://www.w3.org/2000/svg" xmlns:xlink="http://www.w3.org/1999/xlink" viewBox="0 0 1280 1024"><defs><style>.cls-1{font-size:100px;fill:#306;font-family:Roboto-Thin, Roboto;}.cls-2{letter-spacing:-0.01em;}.cls-3{font-family:Manrope-Regular, Manrope;}.cls-4{fill:url(#CCP);}.cls-5{fill:url(#CCP-2);}.cls-6{fill:url(#CCP-3);}.cls-7{fill:url(#CCP-4);}.cls-8{fill:url(#CCP-5);}.cls-9{fill:url(#CCP-6);}.cls-10{fill:url(#CCP-7);}.cls-11{fill:url(#CCP-8);}.cls-12{fill:url(#CCP-9);}.cls-13{fill:url(#CCP-10);}.cls-14{fill:url(#CCP-11);}.cls-15{fill:url(#CCP-12);}.cls-16{fill:url(#CCP-13);}.cls-17{fill:url(#CCP-14);}.cls-18{fill:url(#CCP-15);}.cls-19{fill:url(#CCP-16);}.cls-20{fill:url(#CCP-17);}.cls-21{fill:url(#CCP-18);}.cls-22{fill:url(#CCP-19);}.cls-23{fill:url(#CCP-20);}.cls-24{fill:url(#CCP-21);}.cls-25{fill:url(#CCP-22);}.cls-26{fill:url(#CCP-23);}.cls-27{fill:url(#CCP-24);}.cls-28{fill:url(#CCP-25);}.cls-29{fill:url(#CCP-26);}.cls-30{fill:url(#CCP-27);}.cls-31{fill:url(#CCP-28);}.cls-32{fill:url(#CCP-29);}</style><linearGradient id="CCP" x1="882.39" y1="613.55" x2="924.73" y2="613.55" gradientUnits="userSpaceOnUse"><stop offset="0" stop-color="#90f"/><stop offset="0.27" stop-color="#9000f6"/><stop offset="0.34" stop-color="#8c00f2"/><stop offset="0.43" stop-color="#7b00e1"/><stop offset="0.61" stop-color="#5100b7"/><stop offset="0.99" stop-color="#309"/></linearGradient><linearGradient id="CCP-2" x1="803.46" y1="469.9" x2="887.17" y2="469.9" xlink:href="#CCP"/><linearGradient id="CCP-3" x1="886.5" y1="446.5" x2="901.54" y2="446.5" xlink:href="#CCP"/><linearGradient id="CCP-4" x1="886.26" y1="446.53" x2="902.67" y2="446.53" xlink:href="#CCP"/><linearGradient id="CCP-5" x1="799.34" y1="403.49" x2="905.23" y2="403.49" xlink:href="#CCP"/><linearGradient id="CCP-6" x1="834.17" y1="350.64" x2="909.73" y2="350.64" xlink:href="#CCP"/><linearGradient id="CCP-7" x1="857.8" y1="346.39" x2="869.54" y2="346.39" xlink:href="#CCP"/><linearGradient id="CCP-8" x1="825.64" y1="292.65" x2="848.65" y2="292.65" xlink:href="#CCP"/><linearGradient id="CCP-9" x1="750.6" y1="232.37" x2="814" y2="232.37" xlink:href="#CCP"/><linearGradient id="CCP-10" x1="772.63" y1="279.5" x2="800.51" y2="279.5" xlink:href="#CCP"/><linearGradient id="CCP-11" x1="724.51" y1="250.05" x2="759" y2="250.05" xlink:href="#CCP"/><linearGradient id="CCP-12" x1="758.48" y1="322.91" x2="782.75" y2="322.91" xlink:href="#CCP"/><linearGradient id="CCP-13" x1="697.06" y1="342.27" x2="763.41" y2="342.27" xlink:href="#CCP"/><linearGradient id="CCP-14" x1="736.42" y1="362.16" x2="773.45" y2="362.16" xlink:href="#CCP"/><linearGradient id="CCP-15" x1="688.25" y1="336.72" x2="731.74" y2="336.72" xlink:href="#CCP"/><linearGradient id="CCP-16" x1="731.26" y1="423.98" x2="775.05" y2="423.98" xlink:href="#CCP"/><linearGradient id="CCP-17" x1="718.2" y1="641.52" x2="746.75" y2="641.52" xlink:href="#CCP"/><linearGradient id="CCP-18" x1="660.71" y1="525.66" x2="799.39" y2="525.66" xlink:href="#CCP"/><linearGradient id="CCP-19" x1="708.37" y1="410.39" x2="756.56" y2="410.39" xlink:href="#CCP"/><linearGradient id="CCP-20" x1="762.33" y1="448.95" x2="875.73" y2="448.95" xlink:href="#CCP"/><linearGradient id="CCP-21" x1="839.47" y1="496.09" x2="860.6" y2="496.09" xlink:href="#CCP"/><linearGradient id="CCP-22" x1="753.28" y1="516.44" x2="762.16" y2="516.44" xlink:href="#CCP"/><linearGradient id="CCP-23" x1="753.47" y1="583.65" x2="831.47" y2="583.65" xlink:href="#CCP"/><linearGradient id="CCP-24" x1="854.03" y1="426.53" x2="870.78" y2="426.53" xlink:href="#CCP"/><linearGradient id="CCP-25" x1="706.29" y1="361.15" x2="736.56" y2="361.15" xlink:href="#CCP"/><linearGradient id="CCP-26" x1="805.08" y1="251.96" x2="825.27" y2="251.96" xlink:href="#CCP"/><linearGradient id="CCP-27" x1="840.21" y1="314.61" x2="863.65" y2="314.61" xlink:href="#CCP"/><linearGradient id="CCP-28" x1="776.38" y1="346.49" x2="803.1" y2="346.49" xlink:href="#CCP"/><linearGradient id="CCP-29" x1="798.3" y1="271.39" x2="874.08" y2="271.39" xlink:href="#CCP"/></defs><title>logo</title><text class="cls-1" transform="translate(237 691)">Cent<tspan class="cls-2" x="201.56" y="0">r</tspan><tspan x="234.03" y="0">o de </tspan><tspan class="cls-3"><tspan x="0" y="120">Cirugía Plástica</tspan></tspan></text><path class="cls-4" d="M924.27,691.6c-2.91-6.12-5.64-12.31-8.29-18.55s-5.21-12.5-7.68-18.82c-4.87-12.65-9.41-25.43-13.45-38.4s-8-26-10.1-39.54c-.55-3.36-1-6.75-1.4-10.14s-.68-6.79-.79-10.21a112.66,112.66,0,0,1,.69-20.45l.5,0a307,307,0,0,0,5.92,39.88q2,9.86,4.23,19.69t4.79,19.63c3.53,13,7.57,25.89,12,38.67s9,25.48,14.08,38Z"/><path class="cls-5" d="M883.25,535.46c.84-6.18,1.31-12.4,1.63-18.62s.36-12.44.06-18.64a151,151,0,0,0-2-18.44,82.82,82.82,0,0,0-5.13-17.55l-.15-.35v-.5a15.34,15.34,0,0,0-.16-2.36,17.53,17.53,0,0,0-.52-2.39,13.24,13.24,0,0,0-2.12-4.25,10.91,10.91,0,0,0-3.47-3.05,12.2,12.2,0,0,0-2.13-1c-.74-.29-1.55-.44-2.31-.68l-.78-.24-.46-.55c-2-2.36-4.19-4.71-6.42-6.95s-4.57-4.42-6.93-6.54a178.3,178.3,0,0,0-14.77-12,120.51,120.51,0,0,0-16.27-9.84,96.07,96.07,0,0,0-17.92-6.79l.08-.5a68.14,68.14,0,0,1,19.14,4.28c1.56.55,3.06,1.22,4.59,1.85s3,1.38,4.46,2.14,2.92,1.54,4.36,2.34,2.84,1.69,4.22,2.59a107.51,107.51,0,0,1,15.6,12.09,122.71,122.71,0,0,1,13.32,14.62l-1.24-.79c1,.32,2,.56,2.89,1a17,17,0,0,1,2.74,1.43,15.06,15.06,0,0,1,4.5,4.28,17.19,17.19,0,0,1,2.55,5.56,21.35,21.35,0,0,1,.53,3,17.28,17.28,0,0,1,.08,3.08l-.14-.84a85.2,85.2,0,0,1,4.75,18.49,140.39,140.39,0,0,1,1.28,18.86c0,6.28-.34,12.55-.89,18.79s-1.37,12.45-2.53,18.6Z"/><path class="cls-6" d="M886.5,476.5s16-47,15-60"/><path class="cls-7" d="M886.26,476.42c1.27-5,2.6-10,3.81-15.05.62-2.51,1.25-5,1.84-7.52s1.23-5,1.82-7.52,1.08-5,1.53-7.57,1.06-5,1.77-7.46c1.35-4.95,3-9.7,4.22-14.78l.5,0a24.71,24.71,0,0,1,.9,8,55.76,55.76,0,0,1-.74,7.89,52,52,0,0,1-1.86,7.62c-.79,2.49-1.69,4.93-2.47,7.41s-1.63,4.94-2.48,7.39-1.75,4.88-2.64,7.32c-1.86,4.85-3.7,9.69-5.72,14.47Z"/><path class="cls-8" d="M877.32,449.32c3.24-3.47,6.27-7.14,9.17-10.9a123.8,123.8,0,0,0,8.06-11.69,67.8,67.8,0,0,0,6.11-12.64c1.46-4.36,2.41-9,1.44-13.3l0,.16a12.18,12.18,0,0,0-.77-1.53,14.48,14.48,0,0,0-10.06-6.94c-.59-.11-1.2-.16-1.8-.24s-1.32-.11-2-.16l-4-.29-7.93-.55c-5.29-.33-10.58-.58-15.84-.67-2.63,0-5.25,0-7.84.1-1.28.07-2.57.16-3.81.29s-2.59.31-3.89.47c-5.24.65-10.48,1.46-16,1.76a31.12,31.12,0,0,1-4.31,0c-.41-.05-.76-.06-1.2-.15a10.66,10.66,0,0,1-1.23-.29,19.48,19.48,0,0,1-2.14-.78,22.84,22.84,0,0,1-7.19-5,29.56,29.56,0,0,1-2.79-3.25c-.42-.57-.83-1.15-1.22-1.79l-.3-.47-.24-.51-.48-1a41.65,41.65,0,0,1-2.15-8,59.32,59.32,0,0,0-1.8-7.6,18,18,0,0,0-3.89-6.62l.32-.38a17.17,17.17,0,0,1,5.22,6.29,47.71,47.71,0,0,1,2.86,7.63,46.57,46.57,0,0,0,2.69,7.17,16.24,16.24,0,0,0,2.07,2.88,26.6,26.6,0,0,0,2.59,2.61,20.55,20.55,0,0,0,6.08,3.71,14.49,14.49,0,0,0,1.63.5,5.07,5.07,0,0,0,.72.13c.22,0,.53,0,.78.06,1.13,0,2.4-.05,3.66-.13,5.1-.46,10.38-1.27,15.71-1.82,1.34-.13,2.65-.26,4-.36s2.78-.13,4.15-.14c2.73,0,5.42.12,8.1.26,5.37.29,10.69.76,16,1.26l7.95.81,4,.42c.66.08,1.3.13,2,.23s1.43.2,2.14.35A17.64,17.64,0,0,1,903.92,398a12.78,12.78,0,0,1,.93,2.07l0,.07,0,.09a21.5,21.5,0,0,1,0,7.59,36.4,36.4,0,0,1-2,7.11A70.17,70.17,0,0,1,896,427.68a127.42,127.42,0,0,1-8.63,11.48c-3.08,3.66-6.31,7.18-9.73,10.52Z"/><path class="cls-9" d="M880.64,327.71c-2.13,1.43-4.34,2.73-6.58,4s-4.54,2.38-6.88,3.42-4.71,2-7.13,2.9-4.87,1.63-7.35,2.33l-.08,0h-.12a26.51,26.51,0,0,1-8-1.15,15.92,15.92,0,0,1-7.06-4.21,12.28,12.28,0,0,1-2.3-3.6,14.27,14.27,0,0,1-1-4.13,23.32,23.32,0,0,1,1-8.14l.11-.42.37-.28c3.83-2.92,7.7-5.71,11.69-8.4,2-1.34,4-2.65,6.1-3.89A53.42,53.42,0,0,1,860,302.7c.59-.24,1.2-.47,1.86-.67a13.69,13.69,0,0,1,2-.41c1.2-.17,2.4-.33,3.6-.46,2.41-.26,4.83-.47,7.32-.51a27.16,27.16,0,0,1,3.87.19,9,9,0,0,1,2.25.58,5.57,5.57,0,0,1,.71.38l.46.33.76.58A34.53,34.53,0,0,1,888.3,308a23.75,23.75,0,0,1,2.24,3.26,30.26,30.26,0,0,1,1.57,3.59l2.64,6.64q2.63,6.64,5.16,13.33c3.36,8.9,6.5,17.9,9.61,26.9l.12.36v.25c.1,3.3.11,6.53,0,9.79s-.28,6.5-.64,9.75a74.06,74.06,0,0,1-1.57,9.67,34.14,34.14,0,0,1-1.42,4.72,17.24,17.24,0,0,1-2.32,4.36l-.42-.28a26.7,26.7,0,0,0,2.35-9.12,94.24,94.24,0,0,0,.51-9.52c0-3.18,0-6.37-.18-9.56s-.32-6.39-.62-9.51l.13.61c-3.58-8.85-7.14-17.71-10.47-26.65q-2.5-6.71-4.88-13.45l-2.38-6.74a27.79,27.79,0,0,0-1.17-3,20.47,20.47,0,0,0-1.71-2.68,30.85,30.85,0,0,0-4.63-4.8l-.64-.53-.27-.2s0,0-.07,0a4.75,4.75,0,0,0-1.19-.33,22.49,22.49,0,0,0-3.27-.25c-2.27,0-4.61.1-6.95.3-1.16.09-2.33.21-3.5.34a8.58,8.58,0,0,0-1.5.27,14.06,14.06,0,0,0-1.52.49,49.75,49.75,0,0,0-6.19,3c-2,1.14-4.07,2.36-6.06,3.63-4,2.52-7.93,5.2-11.76,8l.48-.7a21.08,21.08,0,0,0-1.08,7.19,11.93,11.93,0,0,0,.67,3.43,10,10,0,0,0,1.76,3,13.83,13.83,0,0,0,6,3.85,24.7,24.7,0,0,0,7.34,1.32l-.2,0c2.45-.6,4.9-1.24,7.3-2s4.79-1.64,7.13-2.6a97.08,97.08,0,0,0,13.63-6.76Z"/><path class="cls-10" d="M869.46,350.25a7.76,7.76,0,0,1-3.91-1.74,5.46,5.46,0,0,1-1.27-1.45,4,4,0,0,1-.46-.81l-.21-.41-.15-.46c-.47-1.2-.1-2.62-.73-3.84a11.24,11.24,0,0,0-.93-2,9.83,9.83,0,0,0-1.54-2.25l-.5,0a7.87,7.87,0,0,0-1.49,2.44,9.16,9.16,0,0,0-.47,2.63,6,6,0,0,0,.64,2.63,22.38,22.38,0,0,0,1.45,2.27l-.26.21a3.47,3.47,0,0,0-.86,1,1.44,1.44,0,0,0-.1,1.13,9.17,9.17,0,0,1,.34,1.18l.21,1.16.29,1.17a23.76,23.76,0,0,0,.74,2.36l.5.06c.47-.71.85-1.43,1.24-2.14l.54-1.08.46-1.09a5.84,5.84,0,0,1,.48-.88,7.87,7.87,0,0,0,6.07.41Z"/><path class="cls-11" d="M848.35,281.3a17.42,17.42,0,0,1-5.75,1.4,15.06,15.06,0,0,1-2.85,0l-1.38-.15-1.34-.3a8.28,8.28,0,0,1-1.29-.47l-.63-.26-.6-.34a11.18,11.18,0,0,0-1.22-.56,7.62,7.62,0,0,0-1.26-.48,13.79,13.79,0,0,1-1.35-.4,14.42,14.42,0,0,0-1.44-.36,15.53,15.53,0,0,0-3.28-.59l-.32.38a10.28,10.28,0,0,0,1.62,3.14c.37.43.77.84,1.19,1.24l.64.58c.23.18.48.33.72.49a6.67,6.67,0,0,0,2.39,1.1,13.23,13.23,0,0,0-1,4.48,8.33,8.33,0,0,0,.33,2.76c.27.9.56,1.8.77,2.71l.64,2.73.71,2.72c.5,1.81,1,3.63,1.59,5.43l.5-.06c.19-1.88.29-3.76.39-5.64l.11-2.81,0-2.8c0-.93.1-1.87.17-2.81a8.33,8.33,0,0,0-.28-2.77,14.15,14.15,0,0,0-1.52-3.57l1.83.12a16.81,16.81,0,0,0,6.67-1.05,15.39,15.39,0,0,0,5.49-3.44Z"/><path class="cls-12" d="M779.53,254.75a23.67,23.67,0,0,1-9-1,27.23,27.23,0,0,1-8.17-4.17,31.44,31.44,0,0,1-6.46-6.57,41.06,41.06,0,0,1-4.58-8l0-.12,0-.15a38.49,38.49,0,0,1-.43-10.39c.21-1.79.46-3.35.84-5.13a10,10,0,0,1,1.06-2.83,9.67,9.67,0,0,1,2-2.25,17.12,17.12,0,0,1,4.67-3,15.45,15.45,0,0,1,5.53-1.23,19.18,19.18,0,0,1,5.57.63,29.76,29.76,0,0,1,5.09,2l-.27-.13c4,1.38,8.1,2.72,12.11,4.2,2,.73,4,1.49,6,2.27s4,1.58,5.94,2.41l.56.23.27.29a57.71,57.71,0,0,1,5,6,48.79,48.79,0,0,1,4.11,6.62c1.2,2.32,3.16,4.8,3.72,7.39s1.57,5.37.6,7.8l-.48-.13c.26-2.47-2.29-4.84-3.18-7.06a30.21,30.21,0,0,0-1.59-3.23c-.6-1-1.26-2.06-1.94-3.06s-1.42-2-2.18-2.91-1.54-1.89-2.35-2.8c-1.62-1.79-3.33-3.61-5-5.19l.83.52c-2-.67-4-1.38-6.06-2.09s-4-1.46-6-2.23c-4-1.52-7.93-3.18-11.89-4.8l-.19-.08-.08-.05a24.13,24.13,0,0,0-4.13-1.86,15.34,15.34,0,0,0-4.31-.73,12.27,12.27,0,0,0-8,3,6.74,6.74,0,0,0-1.4,1.35,6.53,6.53,0,0,0-.74,1.82c-.39,1.46-.75,3.19-1,4.69a35.51,35.51,0,0,0,0,9.55l-.08-.27a41.36,41.36,0,0,0,3.91,7.78,29.61,29.61,0,0,0,5.7,6.53,25.78,25.78,0,0,0,7.52,4.39,22.88,22.88,0,0,0,8.62,1.55Z"/><path class="cls-13" d="M800.49,281.75l0-.5a26.61,26.61,0,0,1-4.78-1.53,28.53,28.53,0,0,1-4.36-2.35l-1-.67c-.34-.22-.65-.49-1-.74a18.53,18.53,0,0,1-1.87-1.55,23.16,23.16,0,0,1-1.77-1.66L784.08,271a27.37,27.37,0,0,1-2.65-4l-.61-1a9.55,9.55,0,0,1-.62-1,23.8,23.8,0,0,0-1.26-2,21.71,21.71,0,0,1-1.32-2.05c-.44-.69-.9-1.38-1.4-2.06a33.48,33.48,0,0,0-3.05-4.27l-.48.14a24,24,0,0,0,.24,5.42c.19.88.42,1.75.67,2.62a15.53,15.53,0,0,0,.92,2.55c1.35,3.41,4.1,6,6.67,8.53l2.09,1.74a25.84,25.84,0,0,0,2.19,1.58,20.14,20.14,0,0,0,2.29,1.34,18.26,18.26,0,0,0-1.22,5.81,12.26,12.26,0,0,0,.27,3.41c.25,1.12.53,2.24.72,3.37l.58,3.39.65,3.38c.47,2.26.93,4.51,1.49,6.76l.5,0c.23-2.3.36-4.6.51-6.89l.16-3.45.1-3.43c0-1.15.14-2.3.22-3.45a12.56,12.56,0,0,0-.22-3.41,20.32,20.32,0,0,0-1.36-4.29l.05,0A26.09,26.09,0,0,0,800.49,281.75Z"/><path class="cls-14" d="M728.69,208.41a21.15,21.15,0,0,1,.4-2.16,14.2,14.2,0,0,1,.67-2,7.17,7.17,0,0,1,.43-.93l.33-.54a24.3,24.3,0,0,1,7.46-2.57,17.22,17.22,0,0,1,8.12.66,20.24,20.24,0,0,1,7.13,4.4,27.93,27.93,0,0,1,5.32,6.76l.45-.21a27.25,27.25,0,0,0-4.87-7.44,21.91,21.91,0,0,0-7.32-5.33,18.87,18.87,0,0,0-9.13-1.43,27.34,27.34,0,0,0-8.88,2.5l-.24.11-.17.19a8.57,8.57,0,0,0-1,1.25c-.22.4-.48.8-.65,1.2a18.68,18.68,0,0,0-1,2.45,22.31,22.31,0,0,0-.63,2.5,21.78,21.78,0,0,0-.39,2.51,50.33,50.33,0,0,0,0,10c.17,1.63.37,3.27.61,4.89s.54,3.24.92,4.83.77,3.17,1.27,4.72,1.05,3.07,1.58,4.61l.08.23.08.13a30.12,30.12,0,0,0,1.88,2.79c.65.88,1.33,1.73,2.05,2.55a34.54,34.54,0,0,0,4,3.78,28.4,28.4,0,0,0-.95,9,20.62,20.62,0,0,0,1,5.37c.54,1.75,1.27,3.46,2,5.16a30.17,30.17,0,0,0,2.72,4.9,17.43,17.43,0,0,0,4,4l.33.21a13.28,13.28,0,0,0-2.79,5.31c-.73,2.23-.18,4.62,0,6.88.13,1.14.26,2.27.46,3.4s.47,2.23.79,3.32a26.69,26.69,0,0,0,2.59,6.25l.46-.2a37.77,37.77,0,0,1-.58-6.43c0-1.06,0-2.13.06-3.19s.12-2.1.22-3.14a25,25,0,0,1,.6-3.1,11.65,11.65,0,0,0,.26-1.53,11.42,11.42,0,0,0,.1-1.55,27.15,27.15,0,0,0-.18-3.21c-.08-.62-.16-1.25-.29-1.9a11.17,11.17,0,0,0,8.66.39l-.16-.48a10.49,10.49,0,0,1-4.92-.44,10.34,10.34,0,0,1-4-2.53,19.28,19.28,0,0,1-4.55-8.37,24.07,24.07,0,0,1-.55-2.41l-.21-1.22-.15-1.24-.35-2.47c-.16-.81-.29-1.64-.48-2.46-.5-2.19-1-4.41-1.7-6.67a18.61,18.61,0,0,0,4.5,2.09,14.25,14.25,0,0,0,3.29.56,11.63,11.63,0,0,0,3.24-.35l0-.5a13.34,13.34,0,0,1-5.59-1.83,15.67,15.67,0,0,1-2.37-1.65,20.88,20.88,0,0,1-2.13-2,35.69,35.69,0,0,1-3.68-4.53,38.59,38.59,0,0,1-2.88-4.73c-.43-1.45-.84-2.9-1.31-4.34l-1.3-4.47c-.24-.74-.41-1.5-.6-2.24l-.6-2.25c-.35-1.5-.68-3-.94-4.52a42.9,42.9,0,0,1-.6-9.09A20.11,20.11,0,0,1,728.69,208.41Z"/><path class="cls-15" d="M758.52,308.25a12.24,12.24,0,0,1,5,.92,21.22,21.22,0,0,1,4.52,2.5,37.51,37.51,0,0,1,7.22,7.24c2.08,2.66,4.33,5.3,5.52,8.48a25,25,0,0,1,2,10l-.48.16a49.8,49.8,0,0,1-5.93-7.94,34.68,34.68,0,0,1-2.24-4.21,43.31,43.31,0,0,0-2.12-4.26,42.26,42.26,0,0,0-2.59-4,30.62,30.62,0,0,0-3-3.64,15.22,15.22,0,0,0-7.93-4.81Z"/><path class="cls-16" d="M761.26,335.57a59.34,59.34,0,0,1-1.77-7.68c-.22-1.3-.38-2.61-.49-3.93,0-.66-.09-1.32-.11-2a9.18,9.18,0,0,1,0-1.05,8.85,8.85,0,0,1,.15-1.05c.6-2.7,2-5.05,2.5-7.4a3.52,3.52,0,0,0,0-1.54,1.34,1.34,0,0,0-.75-.9,7.34,7.34,0,0,0-3.33-.5h-.12a8,8,0,0,1-3.26-1.06,3.88,3.88,0,0,1-1.41-1.48,4.71,4.71,0,0,1-.4-1.86,3.29,3.29,0,0,0-.27-1c-.13-.26-.29-.37-.37-.38a.71.71,0,0,0-.47.08,3.27,3.27,0,0,0-.78.6l.12-.14a5.88,5.88,0,0,1-1.28,1.2,7,7,0,0,1-1.41.8,8.76,8.76,0,0,1-3.08.72,11.83,11.83,0,0,1-3-.24c-.49-.11-1-.25-1.44-.38l-1.38-.5,0,0-.26-.16a5.35,5.35,0,0,0-.75-.36,5.44,5.44,0,0,0-.9-.25,5.59,5.59,0,0,0-1.87,0,6.29,6.29,0,0,0-1.83.62c-.3.13-.58.34-.87.5l-.83.62-1.06.8-1.09-.84a10.48,10.48,0,0,0-1-.68,10.19,10.19,0,0,0-1.19-.6,10.69,10.69,0,0,0-2.5-.74,8.59,8.59,0,0,0-4.93.63c-3.14,1.38-5.56,4.46-7.44,7.75A55.54,55.54,0,0,0,707.93,324l-1.61,5.77-1.44,5.82c-.4,1.95-.87,3.9-1.26,5.86l-.55,2.95c-.21,1-.38,2-.53,2.95l-.47,3c-.16,1-.25,2-.39,3-.3,2-.48,4-.69,6-.36,4-.61,8-.7,12.06l0,3,0,3a52.49,52.49,0,0,0,.43,6l-.48.16a38.63,38.63,0,0,1-1.6-6l-.53-3.05-.41-3.07a110.93,110.93,0,0,1-.66-12.37,116.83,116.83,0,0,1,.73-12.39,113.27,113.27,0,0,1,2-12.27c.48-2,1-4,1.55-6s1.24-4,1.9-5.93a62.52,62.52,0,0,1,5.33-11.53,30.46,30.46,0,0,1,4-5.19,16.81,16.81,0,0,1,5.67-3.89,12.3,12.3,0,0,1,7-.63,13.87,13.87,0,0,1,3.31,1.11,14.78,14.78,0,0,1,1.51.83,12.22,12.22,0,0,1,1.46,1.07l-2.15,0c.38-.27.75-.54,1.14-.79a12.54,12.54,0,0,1,1.25-.67,9.84,9.84,0,0,1,2.8-.82,8.68,8.68,0,0,1,3,.16,8,8,0,0,1,1.41.45,7.42,7.42,0,0,1,1.39.78l-.31-.18,1.13.46c.39.11.77.24,1.15.34a9,9,0,0,0,2.29.28,6.17,6.17,0,0,0,2.14-.41,4.64,4.64,0,0,0,1.66-1.07l.12-.14a5.38,5.38,0,0,1,1.62-1.1,3,3,0,0,1,4,1.62,5.29,5.29,0,0,1,.41,1.85c0,.74,0,.75.11,1a1.56,1.56,0,0,0,.58.65,5.94,5.94,0,0,0,2.28.85h-.12a15.21,15.21,0,0,1,2.1.2,6.16,6.16,0,0,1,2.18.75,3.77,3.77,0,0,1,1,.88,3.22,3.22,0,0,1,.54,1.25,5,5,0,0,1-.13,2.33c-.77,2.72-2.22,4.91-2.86,7.31-.07.29-.13.58-.17.87a8.59,8.59,0,0,0,0,.91c0,.65,0,1.29,0,1.94q.08,1.94.27,3.87a58.42,58.42,0,0,0,1.33,7.66Z"/><path class="cls-17" d="M736.42,364.26a20.14,20.14,0,0,1,4.09-1.14,9.58,9.58,0,0,1,2.22-.09,4,4,0,0,1,2.33.91l0,0,.11.16c2.51,3.58,6.25,6.55,10.26,7.39.5.12,1,.14,1.51.22s1,0,1.46,0l.28,0,.37-.07c.26-.06.51-.1.77-.17.51-.12,1-.29,1.51-.44a11.87,11.87,0,0,0,5-3.11,7.93,7.93,0,0,0,1.9-4.84,16.69,16.69,0,0,0-.05-2.82l-.12-1.29a9.52,9.52,0,0,0-.43-1.27A12.49,12.49,0,0,0,764.2,353a18.64,18.64,0,0,0-5.72-3.24l0-.5a13,13,0,0,1,7.38,1,13.25,13.25,0,0,1,5.93,5.3,12.24,12.24,0,0,1,.94,1.92l.11.29a2,2,0,0,1,.08.35l.1.49.18,1,.17,1a5.88,5.88,0,0,1,0,1,14.37,14.37,0,0,1-.07,2.07,11.47,11.47,0,0,1-3.94,7.44,17.26,17.26,0,0,1-7,3.55c-.62.14-1.24.29-1.87.37-.31.06-.62.1-.94.13l-.49.05-.24,0c-.09,0-.25,0-.34,0-.67-.06-1.35-.11-2-.21s-1.28-.26-1.89-.47a17.28,17.28,0,0,1-6.43-3.87,22.42,22.42,0,0,1-4.39-5.8l.13.18a2.55,2.55,0,0,0-1.41-.71,7.64,7.64,0,0,0-1.93-.15,18.42,18.42,0,0,0-4,.54Z"/><path class="cls-18" d="M701.28,390.63,690.81,373.9l-.07-.11,0-.16c-.77-4.51-1.29-9-1.7-13.53s-.63-9.06-.72-13.6,0-9.09.17-13.64.59-9.09,1.08-13.63l0,.19c.17-6.37.48-12.69,1.09-19.08a55.34,55.34,0,0,1,1.71-9.75l.19-.63.27-.68a7.67,7.67,0,0,1,.73-1.49,7.91,7.91,0,0,1,2.51-2.37,16.83,16.83,0,0,1,5.17-2,28.73,28.73,0,0,1,10.24-.28,26.75,26.75,0,0,1,9.58,3.33,22.34,22.34,0,0,1,7.3,6.87,23.26,23.26,0,0,1,3.43,9.09l-.48.14a27,27,0,0,0-4.77-7.83,21.34,21.34,0,0,0-7.12-5.13,26.63,26.63,0,0,0-17-1.32,11.77,11.77,0,0,0-3.57,1.49,2.94,2.94,0,0,0-.93.81,3.24,3.24,0,0,0-.28.65l-.17.41-.14.5-.31,1-.25,1.07c-.19.71-.32,1.46-.47,2.21-.3,1.48-.54,3-.78,4.54-1,6.11-1.56,12.39-2,18.61v.19c-.65,4.42-1.24,8.85-1.59,13.31s-.61,8.94-.7,13.42,0,9,.13,13.46.46,9,1,13.41l-.1-.27,9.53,17.27Z"/><path class="cls-19" d="M753.73,385.6a12.59,12.59,0,0,0-.61,2.85,11,11,0,0,0,.07,2.87,7.58,7.58,0,0,0,.94,2.6,7.16,7.16,0,0,0,1.83,2l.09.08.07.1,7.94,11.73,7.84,11.79-.08-.12a17.36,17.36,0,0,1,2.11,3.73,14.62,14.62,0,0,1,1.07,4.22,10.63,10.63,0,0,1-.57,4.58A11.81,11.81,0,0,1,772,436l-.13.14-.35.21-7.59,4.54c-2.53,1.51-5.08,3-7.67,4.4s-5.22,2.74-7.87,4-5.31,2.56-8,3.79l-.28.13h0a3.06,3.06,0,0,0-.56.18c-.22.09-.45.2-.67.31a9,9,0,0,0-1.3.81,13.17,13.17,0,0,0-2.36,2.14,17.9,17.9,0,0,0-1.92,2.74,28.21,28.21,0,0,0-1.53,3.12l-.48-.1c.06-.6.11-1.21.19-1.81s.21-1.21.39-1.8a16.67,16.67,0,0,1,1.38-3.49,15.28,15.28,0,0,1,2.29-3.14,13.72,13.72,0,0,1,1.51-1.32,9.27,9.27,0,0,1,.86-.59,7.4,7.4,0,0,1,1-.55l-.3.14c2.48-1.6,5-3.2,7.5-4.71s5-3,7.63-4.46,5.19-2.78,7.83-4.1l7.91-4L769,433a7.1,7.1,0,0,0,1.72-2.39,6.8,6.8,0,0,0,.54-2.93,10.81,10.81,0,0,0-.63-3.19,14.24,14.24,0,0,0-1.46-3l-.08-.12-7.16-12.21-7.06-12.27.16.18a8.74,8.74,0,0,1-2-2.56,8.34,8.34,0,0,1-.85-3.07,11.87,11.87,0,0,1,.18-3.1,13.87,13.87,0,0,1,.9-2.94Z"/><path class="cls-20" d="M723.26,713.44l3.67-15.09.2.61a35.44,35.44,0,0,1-3.4-3.06,27.48,27.48,0,0,1-3-3.54,13.5,13.5,0,0,1-2.06-4.36,6.76,6.76,0,0,1,.76-5.19l-.13.25a21,21,0,0,0,.62-2.84c.16-1,.26-2,.34-3a57.29,57.29,0,0,0,.08-6.15c-.06-2-.27-4.1-.5-6.15l-.43-3.07-.54-3.05.21.55a6.28,6.28,0,0,1-.67-1.61,7,7,0,0,1-.25-1.66,6.29,6.29,0,0,1,.85-3.33,8,8,0,0,1,2.18-2.4,12.61,12.61,0,0,1,2.56-1.49l1.15-.09c-.05,0,.1,0,.16,0h.26a3.32,3.32,0,0,0,.54,0,4,4,0,0,0,1-.28,4.09,4.09,0,0,0,1.65-1.35,10.35,10.35,0,0,0,1.64-5,23.36,23.36,0,0,0,.15-2.93c0-1.09,0-2.19.09-3.25.11-2.15.24-4.29.44-6.43A78.63,78.63,0,0,1,733,616.68a37.65,37.65,0,0,1,2.3-6.38,20,20,0,0,1,1.89-3.11,10.6,10.6,0,0,1,3-2.79l-.24.16a1.66,1.66,0,0,0,.28-.23l.34-.33c.22-.24.42-.48.61-.73a5.41,5.41,0,0,0,.8-1.54,3.85,3.85,0,0,0-.35-3.11l-.08-.14c-.19-.43-.52-1.05-.8-1.59l-.86-1.69c-.57-1.14-1.14-2.28-1.66-3.45-1.05-2.33-2.05-4.69-2.88-7.12a47.24,47.24,0,0,1-2-7.45,21.43,21.43,0,0,1-.12-7.7l.5,0a24.24,24.24,0,0,0,1.43,7.21,60.22,60.22,0,0,0,2.86,6.79c1.1,2.21,2.25,4.39,3.51,6.52l1.89,3.19,1,1.59c.34.55.64,1,1,1.7l-.08-.14a8.41,8.41,0,0,1,1.25,3.11,8.27,8.27,0,0,1-.12,3.47,10.14,10.14,0,0,1-1.33,3,11.68,11.68,0,0,1-2.12,2.47l0,0-.2.13a9.9,9.9,0,0,0-2.83,3.94,35.45,35.45,0,0,0-2,5.51,98.19,98.19,0,0,0-2.46,12q-.45,3.07-.74,6.18c-.08,1-.19,2-.21,3.07a28.4,28.4,0,0,1-.33,3.38,14.34,14.34,0,0,1-2.68,6.77,7.75,7.75,0,0,1-3.3,2.45,7.27,7.27,0,0,1-2,.47,9,9,0,0,1-1,0,6.52,6.52,0,0,1-1.15-.17l1.15-.09a6.77,6.77,0,0,0-3.22,2.31,3.05,3.05,0,0,0-.46,1.56,3.3,3.3,0,0,0,.09.87,4,4,0,0,0,.26.77l.18.37,0,.18.46,3.17.35,3.18c.18,2.13.33,4.27.33,6.42a55.58,55.58,0,0,1-.27,6.44c-.12,1.08-.26,2.15-.46,3.23a21.11,21.11,0,0,1-.84,3.28l0,.14-.08.11a4.46,4.46,0,0,0-.71,3.39,11.59,11.59,0,0,0,1.5,3.8,30.35,30.35,0,0,0,5.55,6.66l.3.28-.1.33-4.33,14.91Z"/><path class="cls-21" d="M788.38,668.72a25.49,25.49,0,0,1-6.75-5.45,9.42,9.42,0,0,1-1.19-1.89c-.28-.74-.42-1.41-.68-2-.47-1.31-1.38-2.4-2-3.81a8.6,8.6,0,0,1-.58-2.17c-.05-.37-.08-.74-.1-1.11a4.69,4.69,0,0,1,0-1.17,13.55,13.55,0,0,0,.55-4.15,28.07,28.07,0,0,0-1.69-8.25l0-.17s0,0,0,0l0-.13-.12-.28-.27-.61-.56-1.23c-.36-.82-.72-1.66-1-2.51a24.25,24.25,0,0,1-1.42-5.32,8.54,8.54,0,0,1,1-5.62,6.26,6.26,0,0,1,2.18-2,10.38,10.38,0,0,1,2.74-1h.13a8.41,8.41,0,0,0,3.46-1.08,9.94,9.94,0,0,0,2.82-2.39,13.4,13.4,0,0,0,1.87-3.27c.24-.59.4-1.21.61-1.82l.41-1.88v.1c.39-6.26,1-12.48,1.93-18.69.48-3.1,1-6.2,1.83-9.27a36,36,0,0,1,1.48-4.59,9.91,9.91,0,0,1,3-4.36l.45,2.09-12-1.9h.4c-3.37.52-6.7.9-10.07,1.22s-6.73.55-10.11.65-6.78.12-10.19-.12a53.06,53.06,0,0,1-10.23-1.54l.41.06-.48-.06-.26-.05c-.18,0-.32-.07-.48-.11l-.9-.23q-.87-.25-1.74-.54c-1.14-.4-2.27-.83-3.38-1.3a44.88,44.88,0,0,1-6.38-3.4,36,36,0,0,1-10.53-10,32.45,32.45,0,0,1-3.41-6.53,35.23,35.23,0,0,1-1.83-7.13,44.33,44.33,0,0,1,.59-14.5l0-.2.11-.25a39.7,39.7,0,0,0,1.91-5.15,45.72,45.72,0,0,0,1.24-5.42,34.94,34.94,0,0,0,.16-10.94,26.47,26.47,0,0,0-3.65-10.08,29.45,29.45,0,0,0-7.32-7.87l-.11-.09L708,489c-3.64-3.62-7.18-7.27-10.67-11s-6.91-7.56-10.1-11.73c-.79-1-1.57-2.12-2.3-3.3a19.58,19.58,0,0,1-1.07-1.89c-.17-.32-.32-.76-.48-1.14a10.8,10.8,0,0,1-.32-1.28,35.82,35.82,0,0,1-.56-8.17,19.58,19.58,0,0,1,.68-4.31,10.11,10.11,0,0,1,2.4-4.38,7.62,7.62,0,0,1,2.3-1.65,8.28,8.28,0,0,1,2.67-.68,12.88,12.88,0,0,1,4.74.57l-3.3,2,1-6,3.27,2.93a16.63,16.63,0,0,1-2.67.5,13.21,13.21,0,0,1-2.82,0,7.4,7.4,0,0,1-3.28-1,5.64,5.64,0,0,1-2.44-3.35l4.89.33a6.69,6.69,0,0,1-.61,1.17,6.06,6.06,0,0,1-.83,1.09,4.42,4.42,0,0,1-.58.55,3.9,3.9,0,0,1-.78.51,4.14,4.14,0,0,1-2.18.5,5,5,0,0,1-1.1-.22,4.35,4.35,0,0,1-.87-.4,3.88,3.88,0,0,1-.67-.47,6.8,6.8,0,0,1-.55-.49c-.27-.31-.58-.65-.8-1l-.61-.92,4,.49a9.54,9.54,0,0,1-1.42,1.12,5.87,5.87,0,0,1-2,.85l-.33.06-.4,0a3.21,3.21,0,0,1-.85-.06,3.62,3.62,0,0,1-1.68-.75,4.75,4.75,0,0,1-1.52-2.26l-1.4-3.39,3.81,0a4,4,0,0,1,.49,0l.24.06.29.09a2.63,2.63,0,0,1,1.23,1,3.48,3.48,0,0,1,.22.36,2.75,2.75,0,0,1,.11.29,2.61,2.61,0,0,1,.14.6,3,3,0,0,1,0,.74,3.66,3.66,0,0,1-.46,1.26,4.85,4.85,0,0,1-1,1.19,4.74,4.74,0,0,1-2.93,1.23,4.36,4.36,0,0,1-3.18-1.23,6.6,6.6,0,0,1-1.4-1.94l1.89,1.37a13.28,13.28,0,0,1-1.43-.33,12.72,12.72,0,0,1-1.34-.48,7.47,7.47,0,0,1-2.73-1.86,5.52,5.52,0,0,1-1.07-1.78,4.2,4.2,0,0,1-.25-1.06,3.67,3.67,0,0,1,0-1,6.35,6.35,0,0,1,.4-1.8,11.72,11.72,0,0,1,.7-1.42L668,428.5a1.21,1.21,0,0,0,0,.5.36.36,0,0,0,0,.11s0,.08,0,.05l0-.09-.18-.36-.45-.87-.94-1.85c-.63-1.24-1.22-2.52-1.77-3.81a55.36,55.36,0,0,1-2.72-8,42.67,42.67,0,0,1-1.26-8.45,38.23,38.23,0,0,1,.63-8.6l.08-.49.3-.39a65.73,65.73,0,0,1,5.23-5.9,40.28,40.28,0,0,1,6.14-5.12,19.31,19.31,0,0,1,3.76-1.94,9.55,9.55,0,0,1,4.64-.57,7.25,7.25,0,0,1,4.29,2.39,13.2,13.2,0,0,1,2.21,3.8l-1.79-1a38.9,38.9,0,0,1,4.79-.24,29.62,29.62,0,0,1,4.77.4,17.52,17.52,0,0,1,4.74,1.41,9.82,9.82,0,0,1,4,3.35l-.38-.38a40.77,40.77,0,0,1,4.9,4.08,42.61,42.61,0,0,1,4.18,4.72,36.72,36.72,0,0,1,3.43,5.28,34,34,0,0,1,2.43,5.81l-.08-.17a4.91,4.91,0,0,1,.5,3.81,5.45,5.45,0,0,1-2.4,2.82,13,13,0,0,1-3.25,1.32,30,30,0,0,1-3.37.68l-.08-.5a27,27,0,0,0,3.23-.88,12,12,0,0,0,2.94-1.43,4.44,4.44,0,0,0,1.8-2.34,3.65,3.65,0,0,0-.49-2.72l0-.06,0-.11a32.38,32.38,0,0,0-2.63-5.39,34.92,34.92,0,0,0-3.53-4.85,44.45,44.45,0,0,0-4.2-4.26,37.7,37.7,0,0,0-4.7-3.61l-.2-.14-.18-.24a7.16,7.16,0,0,0-3-2.26,14.56,14.56,0,0,0-4-1,26.91,26.91,0,0,0-4.32-.19,35.39,35.39,0,0,0-4.31.39l-1.22.19-.57-1.21a9.91,9.91,0,0,0-1.67-2.69,3.75,3.75,0,0,0-2.25-1.17c-1.71-.19-3.85.85-5.73,2.17a35.77,35.77,0,0,0-5.39,4.75,58.94,58.94,0,0,0-4.69,5.6l.38-.88a34,34,0,0,0-.35,7.55,37.38,37.38,0,0,0,1.27,7.54,49.69,49.69,0,0,0,2.61,7.27q.79,1.77,1.71,3.51l.94,1.75.49.91.28.55.07.14.07.17.08.23a4.27,4.27,0,0,1,.2,1l0,.28-.38,1c-.07.21-.21.43-.27.6s-.11.32-.08.37,0,.05.09.22a2.75,2.75,0,0,0,1,.61c.23.09.49.18.76.26a6.88,6.88,0,0,0,.76.17l1.31.19.58,1.18a1.72,1.72,0,0,0,.34.5.86.86,0,0,0-.48-.12c-.27,0-.26.08-.22,0l0,0a1.52,1.52,0,0,0-.18.57,2.45,2.45,0,0,0,0,.55,3.1,3.1,0,0,0,.11.51c0,.08.06.14.11.25a1.79,1.79,0,0,0,.19.32,2.37,2.37,0,0,0,1.09.86l.24.08.2.05.39,0,2.41-3.34c0,.08.11.14-.18-.16a1.44,1.44,0,0,0-.55-.24l-.22,0h-.11c-.07,0,.1,0,.29-.16a3.78,3.78,0,0,0,.55-.44l2.22-2.14,1.78,2.63.36.53c.12.17.22.25.32.39s.27.12-.18,0a1.05,1.05,0,0,0-.51.09s-.06.06,0,0l0,0a1.54,1.54,0,0,0,.23-.31,3.88,3.88,0,0,0,.2-.37l1.74-5.46,3.15,5.79c.09.17,0,.13.19.23a2.4,2.4,0,0,0,1,.27,8.5,8.5,0,0,0,1.73,0,13.43,13.43,0,0,0,1.82-.33l4-1-.68,3.93-1,6-.5,2.88-2.8-.84a7.79,7.79,0,0,0-2.77-.4,2.51,2.51,0,0,0-1.79.78,5.18,5.18,0,0,0-1.19,2.25,15.06,15.06,0,0,0-.53,3.2,33.14,33.14,0,0,0,.41,7c.06.35.09.38.13.57s.12.38.25.62c.21.45.49.95.78,1.44.6,1,1.3,2,2,3,2.93,4,6.26,7.77,9.61,11.53s6.85,7.44,10.37,11l-.22-.19a33.57,33.57,0,0,1,8.24,9.16,30.61,30.61,0,0,1,4,11.66,38.72,38.72,0,0,1-.32,12.16,49,49,0,0,1-1.42,5.86,41.23,41.23,0,0,1-2.2,5.7l.15-.45a41.06,41.06,0,0,0-.71,13.29,31.15,31.15,0,0,0,1.56,6.4,29.42,29.42,0,0,0,3,5.87,33.1,33.1,0,0,0,9.48,9.23,41.09,41.09,0,0,0,5.9,3.22c1,.46,2.08.88,3.13,1.25.53.19,1.06.36,1.59.52.26.07.53.16.78.22l.38.09.17,0c.05,0,0,0,0,0l.41.06a50.72,50.72,0,0,0,9.61,1.56c3.28.27,6.6.28,9.92.23s6.64-.25,10-.51,6.64-.62,9.91-1.07l.21,0,.19,0,12,2.1,2.7.47-2.25,1.62a8.08,8.08,0,0,0-2.2,3.3,34.3,34.3,0,0,0-1.45,4.29c-.81,2.94-1.42,6-1.94,9-1,6.1-1.72,12.3-2.21,18.47v.1l-.48,2c-.24.66-.43,1.33-.71,2A14.46,14.46,0,0,1,786,617.3a11.45,11.45,0,0,1-3.31,2.72,9.75,9.75,0,0,1-4.17,1.19h.13a8.5,8.5,0,0,0-2.33.76,4.79,4.79,0,0,0-1.73,1.55,7.29,7.29,0,0,0-.83,4.76,22.59,22.59,0,0,0,1.26,5.06c.3.83.63,1.65,1,2.47l.53,1.23.27.63.13.33.07.19a2.16,2.16,0,0,1,0,.32l0-.17a29.6,29.6,0,0,1,1.6,8.58,14.5,14.5,0,0,1-.64,4.33,3.76,3.76,0,0,0,0,1c0,.34,0,.69.07,1a7.94,7.94,0,0,0,.49,2c.5,1.24,1.44,2.43,1.93,3.84.26.7.41,1.44.64,2a7.6,7.6,0,0,0,1.07,1.76,24.53,24.53,0,0,0,6.48,5.41Z"/><path class="cls-22" d="M708.63,434.29a10.52,10.52,0,0,0,4.89,1,8.3,8.3,0,0,0,2.43-.4,8.82,8.82,0,0,0,2.2-1l0,0,.06,0c3.83-1.71,7.71-3.24,11.7-4.57a58.77,58.77,0,0,1,6.12-1.71,21.46,21.46,0,0,1,6.66-.61l-.62,0L753,423.69l-1,2.93c-1.17-1.52-2.14-3-3.11-4.55S747,419,746.2,417.33s-1.63-3.26-2.33-5a46.38,46.38,0,0,1-1.86-5.19l.08.25a43.4,43.4,0,0,0-2-4.12,33.77,33.77,0,0,0-2.42-3.88,16.7,16.7,0,0,0-2.93-3.2,8.5,8.5,0,0,0-3.45-1.85l-.14,0a24.3,24.3,0,0,1-3.62-1.4,19.11,19.11,0,0,1-3.3-2,11.86,11.86,0,0,1-2.74-2.78,7,7,0,0,1-1.22-3.65l.5-.08a6.69,6.69,0,0,0,1.93,2.69,10.82,10.82,0,0,0,2.8,1.72,19.93,19.93,0,0,0,3.15,1.11,22.25,22.25,0,0,0,3.24.67l-.14,0a12.5,12.5,0,0,1,5.6,2,20.37,20.37,0,0,1,4.14,3.74,29.44,29.44,0,0,1,3.1,4.37,34.69,34.69,0,0,1,2.34,4.82l0,.13,0,.12c.44,1.62.87,3.24,1.42,4.85s1.12,3.19,1.79,4.76,1.41,3.1,2.22,4.61a48.22,48.22,0,0,0,2.58,4.34l1.56,2.31-2.57.62L742.91,430l-.35.09-.28-.05a19,19,0,0,0-5.72.24c-2,.32-4,.75-6,1.25-4,1-7.94,2.23-11.82,3.62l.09,0a10.65,10.65,0,0,1-2.6,1,9.12,9.12,0,0,1-2.75.22,10.94,10.94,0,0,1-2.67-.49,10.83,10.83,0,0,1-2.46-1.1Z"/><path class="cls-23" d="M875.27,507.59l-1-2.16-1-2.12a39.67,39.67,0,0,0-2.44-4,24.36,24.36,0,0,0-3-3.57,15.28,15.28,0,0,0-1.73-1.49,8.29,8.29,0,0,0-1.85-1.07l-.15-.05L864,493a25,25,0,0,1-3.64-3.84,27.43,27.43,0,0,1-2.82-4.48,34.17,34.17,0,0,1-2-4.89,31.39,31.39,0,0,1-1.22-5.21v-.11a4.53,4.53,0,0,0-.93-2.78,3.44,3.44,0,0,0-1.06-.88l-.26-.12-.43-.15-.9-.31-7.15-2.5q-7.14-2.52-14.26-5.15c-4.74-1.76-9.48-3.55-14.19-5.45-2.35-1-4.7-1.91-7-3-1.17-.52-2.34-1.07-3.52-1.67-.6-.32-1.18-.6-1.8-1l-.45-.28-.5-.35-.25-.18a2,2,0,0,1-.28-.23c-.22-.21-.43-.42-.62-.64l1,.75a69.78,69.78,0,0,1-8.66-4.16,61.21,61.21,0,0,1-8-5.37,42.37,42.37,0,0,1-6.87-7c-.49-.68-1-1.33-1.46-2l-1.27-2.17a21.8,21.8,0,0,1-1.07-2.3l-.5-1.16-.39-1.14c-2.13-6.06-3-12.32-4.12-18.28a49.32,49.32,0,0,0-2.33-8.68,25.09,25.09,0,0,0-4.68-7.68l.34-.36a22.61,22.61,0,0,1,6.19,7.15,43.7,43.7,0,0,1,3.58,8.8c.9,3,1.69,6,2.51,8.91a84.39,84.39,0,0,0,2.88,8.52c2,5.33,6,9.6,10.48,13.34a70.25,70.25,0,0,0,7.22,5.14,66.42,66.42,0,0,0,7.81,4.21l1,.75s0,0,.05,0l.07.07.13.1.27.21.34.23c.44.3,1,.6,1.48.89,1.06.59,2.14,1.16,3.26,1.7,2.22,1.1,4.5,2.15,6.79,3.17,4.58,2,9.23,4,13.89,5.89s9.34,3.78,14,5.62l7,2.74.89.34.46.18a5.43,5.43,0,0,1,.59.28,6,6,0,0,1,1.78,1.59,6.91,6.91,0,0,1,1.28,4.31v-.11a28.86,28.86,0,0,0,.91,4.83,32.25,32.25,0,0,0,1.69,4.68,26.26,26.26,0,0,0,2.45,4.32A24.7,24.7,0,0,0,865,492l-.25-.14a8.91,8.91,0,0,1,2.21,1.37,18,18,0,0,1,1.8,1.68,24.7,24.7,0,0,1,2.92,3.87,41.15,41.15,0,0,1,2.29,4.23l.94,2.2.85,2.23Z"/><path class="cls-24" d="M845.6,469.73a7.07,7.07,0,0,0-2.5,2.42,7.82,7.82,0,0,0-1.11,3.24,10.78,10.78,0,0,0,.23,3.44c.14.57.31,1.13.48,1.69l.65,1.64,0,0,0,.08a48.84,48.84,0,0,1,1,5.12,41.17,41.17,0,0,1,.49,5.22,30.08,30.08,0,0,1-.28,5.34,17.08,17.08,0,0,1-1.65,5.37l.22-.84a12.13,12.13,0,0,1-.12,1.27,8.49,8.49,0,0,0-.06.85,8.1,8.1,0,0,0,.16,1.68,17,17,0,0,0,1.12,3.48l.08.18,0,.35c.13.86.32,1.82.55,2.71a21.63,21.63,0,0,0,.82,2.58,7.9,7.9,0,0,0,1.12,2.06,1.64,1.64,0,0,0,.51.45c.12,0,.08,0,.07,0l-.47,0c.13-.06.52-.18.8-.32s.6-.28.91-.43a14.71,14.71,0,0,0,1.71-1.11,13.8,13.8,0,0,0,2.86-2.9,11.36,11.36,0,0,0,1.09-1.77c.16-.32.35-.61.49-.94l.41-1c.29-.66.42-1.4.66-2.1l.46-2.22,0,.57a31.14,31.14,0,0,1-.23-4.05,28.27,28.27,0,0,1,.25-4,19.85,19.85,0,0,1,.88-3.94,10.75,10.75,0,0,1,1.93-3.55l.42.26a13.73,13.73,0,0,0-.61,3.63,26.41,26.41,0,0,0,.14,3.66c.13,1.22.3,2.43.52,3.64s.48,2.43.78,3.53l.06.21,0,.36c-.06.9-.08,1.81-.18,2.71a26.26,26.26,0,0,1-.56,2.72,17.56,17.56,0,0,1-2.3,5.22,15.75,15.75,0,0,1-4.07,4.15,15,15,0,0,1-2.55,1.45c-.45.19-.9.39-1.37.54-.23.08-.48.15-.73.22l-.38.1-.47.1-.23,0h-.24a4.81,4.81,0,0,1-2.72-.94,6.56,6.56,0,0,1-1.57-1.67,13.24,13.24,0,0,1-1.48-3.28,26.89,26.89,0,0,1-.75-3.17c-.18-1.05-.32-2.05-.41-3.17l.13.53a20.39,20.39,0,0,1-1.13-4.38,12.72,12.72,0,0,1-.07-2.4c0-.4.09-.81.16-1.18l.14-.76.13-.68.09-.16a14.65,14.65,0,0,0,1.62-4.24,27,27,0,0,0,.6-4.81,45.53,45.53,0,0,0-.07-4.95c-.11-1.66-.29-3.34-.56-5l0,.13-.56-1.84c-.13-.64-.27-1.27-.37-1.9a12.15,12.15,0,0,1,.08-3.9,8.47,8.47,0,0,1,1.59-3.55,7.77,7.77,0,0,1,3-2.38Z"/><path class="cls-25" d="M753.72,505.39a58,58,0,0,1,3.33,4.91c.51.85,1,1.71,1.49,2.58s.92,1.76,1.34,2.66.93,1.79,1.4,2.7a8.54,8.54,0,0,1,.82,2.94,10.7,10.7,0,0,1-.54,4.77,7.9,7.9,0,0,1-.81,1.55h-.5a23.78,23.78,0,0,1-3-5.15c-.78-1.67-.7-3.62-1.13-5.48-.2-.93-.44-1.86-.67-2.79s-.45-1.87-.69-2.8c-.47-1.89-1-3.77-1.47-5.67Z"/><path class="cls-26" d="M753.47,530.25q7.68-1,15.42-1.28c5.15-.21,10.33-.24,15.5,0a92.67,92.67,0,0,1,15.49,1.94,47.24,47.24,0,0,1,7.58,2.32,26.09,26.09,0,0,1,7,4.08l-.64-.33,8,1.87.13,0,.14.06a21.26,21.26,0,0,1,3.46,2,17.23,17.23,0,0,1,3,2.68,11.69,11.69,0,0,1,2.23,3.65,9.55,9.55,0,0,1,.51,4.47l0-.27c0,2.11,0,4.18-.15,6.26s-.28,4.16-.55,6.25a50.39,50.39,0,0,1-3,12.47v0l-.08.15c-1.68,3.2-3.37,6.4-5.1,9.58s-3.48,6.34-5.27,9.49q-5.38,9.42-11,18.72l-.08.14h0a28.94,28.94,0,0,0-1.5,2.54c-.48.91-.93,1.85-1.34,2.81a59,59,0,0,0-2.15,5.94c-.55,2-1.11,4.1-1.47,6.21s-.69,4.24-.94,6.4h-.5c-.07-1.09-.19-2.18-.23-3.28s-.07-2.2,0-3.3a50.92,50.92,0,0,1,.61-6.61,46.35,46.35,0,0,1,1.53-6.52c.33-1.08.71-2.14,1.14-3.2a23.22,23.22,0,0,1,1.55-3.19l-.09.14q4.89-9.7,10-19.28,2.57-4.78,5.23-9.51c1.77-3.16,3.58-6.29,5.4-9.42l-.09.19a35.19,35.19,0,0,0,1.93-5.37,57.18,57.18,0,0,0,1.25-5.76,86.16,86.16,0,0,0,1.1-11.89v-.27a5.76,5.76,0,0,0-.21-2.7,8,8,0,0,0-1.46-2.55,14.14,14.14,0,0,0-2.34-2.22,18.66,18.66,0,0,0-2.77-1.73l.27.09-8-2.13-.38-.1-.26-.23a23.64,23.64,0,0,0-6.13-3.82,45.89,45.89,0,0,0-7.09-2.42,94,94,0,0,0-15-2.52c-5.08-.48-10.21-.67-15.34-.68s-10.27.14-15.38.53Z"/><path class="cls-27" d="M870.78,420.13l-.17-.42,0-.1-.3-.31a7.4,7.4,0,0,0-.82,0,9.29,9.29,0,0,0-3.91-.1,5.18,5.18,0,0,0-2.06.85c-.63.43-1.25.89-1.9,1.26l-1.94,1.14-1.92,1.21c-1.27.84-2.54,1.67-3.77,2.58l.18.47c1.53-.19,3-.46,4.51-.73l2.23-.44,1.63-.38a2.6,2.6,0,0,1-.1.25q-.4,1.05-.72,2.1c-.18.71-.35,1.42-.47,2.13a20.43,20.43,0,0,0-.32,4.27l.49.06c.7-1.28,1.43-2.55,2.22-3.77.38-.61.79-1.21,1.2-1.8s.82-1.17,1.26-1.73a12.43,12.43,0,0,1,1.52-1.56,6.25,6.25,0,0,0,.7-.77,4,4,0,0,0,.56-.81,17.55,17.55,0,0,0,1-1.94A9.17,9.17,0,0,0,870.78,420.13Z"/><path class="cls-28" d="M736.44,346.74a16.71,16.71,0,0,0-5.86.65,14.85,14.85,0,0,0-5.05,2.63,16.69,16.69,0,0,0-3.69,4.17,7.67,7.67,0,0,0-.71,1.21l-.64,1.24c-.38.87-.69,1.77-1,2.65h0l-.17.32c-.8,1.57-1.53,3.18-2.36,4.73a36.23,36.23,0,0,1-2.86,4.42,50.35,50.35,0,0,1-3.38,4.1,33.17,33.17,0,0,1-4,3.76l-.42-.26a31.71,31.71,0,0,1,1.52-5.24,48.58,48.58,0,0,1,2.12-4.9,37.78,37.78,0,0,1,2.64-4.58c1-1.45,2.11-2.84,3.14-4.27l-.17.33c.53-1,1-1.94,1.57-2.89l.93-1.37a10.65,10.65,0,0,1,1-1.32l1.1-1.25c.39-.4.83-.75,1.24-1.13l.62-.54.69-.48c.47-.3.9-.65,1.39-.9a16.48,16.48,0,0,1,6.18-2,15.73,15.73,0,0,1,6.3.45Z"/><path class="cls-29" d="M805.14,254.3c1.92-.18,3.83-.39,5.69-.68.94-.13,1.86-.3,2.76-.49s1.79-.38,2.64-.62a10.17,10.17,0,0,0,2.34-1,14.59,14.59,0,0,1,1.85-.9,5.47,5.47,0,0,0,1.46-.75,5.67,5.67,0,0,0,1.38-2.26l.48-.14a4.09,4.09,0,0,1,1.52,3.4,5.47,5.47,0,0,1-1.87,3.77,6.51,6.51,0,0,1-3.29,1.59,26.86,26.86,0,0,1-3.24.27c-1,0-2.06,0-3.06,0s-2-.19-3-.33a39.65,39.65,0,0,1-5.75-1.32Z"/><path class="cls-30" d="M840.28,319.12a73.45,73.45,0,0,0,7.91-.54,35.43,35.43,0,0,0,3.8-.66,18.37,18.37,0,0,0,3.48-1.08,5.33,5.33,0,0,0,2.33-1.8,3,3,0,0,0,.26-.45c.05-.15.12-.25.2-.48.19-.42.31-.76.4-1a1.47,1.47,0,0,0,.1-.33c.07-.11,0-.2.06-.34a2,2,0,0,0-.46-1,14.59,14.59,0,0,0-2.8-2.53l.05-.5a6.74,6.74,0,0,1,4.68.07,5.38,5.38,0,0,1,2.34,1.76,5.49,5.49,0,0,1,1,3.17,6.66,6.66,0,0,1-.62,2.82,6,6,0,0,1-.72,1.28,7.57,7.57,0,0,1-1,1.08,11.33,11.33,0,0,1-4.56,2.09,26.12,26.12,0,0,1-8.49.44,45.88,45.88,0,0,1-8-1.47Z"/><path class="cls-31" d="M776.62,333.28c2.49,1.08,4.93,2.22,7.38,3.34l-.5-.14a28.29,28.29,0,0,1,5.82.24,21.69,21.69,0,0,1,5.76,1.58,15.52,15.52,0,0,1,5.28,3.7,11.51,11.51,0,0,1,1.9,2.91,10.68,10.68,0,0,1,.82,3.35l0,.16v.08a11.11,11.11,0,0,1-.23,1.88c-.12.58-.28,1.15-.45,1.71a14.63,14.63,0,0,1-1.49,3.21,11.29,11.29,0,0,1-2.28,2.68,8.48,8.48,0,0,1-3,1.72l-.32-.4a21.89,21.89,0,0,0,1.28-2.79,19.87,19.87,0,0,0,.76-2.73,25,25,0,0,0,.41-2.71q.06-.68.09-1.35c0-.42,0-.94,0-1.22l0,.23a11,11,0,0,0-1.18-4,9.24,9.24,0,0,0-3.34-3.15,21.62,21.62,0,0,0-4.71-2,31.93,31.93,0,0,0-5.19-1.09l-.38,0-.12-.09c-2.22-1.55-4.44-3.07-6.62-4.66Z"/><path class="cls-32" d="M835.62,274.72a38.4,38.4,0,0,1-6.68,2.81,34.28,34.28,0,0,1-7.12,1.49,22.42,22.42,0,0,1-14.3-3,22,22,0,0,1-5.55-5,29.68,29.68,0,0,1-2.11-3.1l-.48-.85a8.33,8.33,0,0,1-.4-1,12.25,12.25,0,0,1-.49-1.94,12.88,12.88,0,0,1,1.12-7.8,17.84,17.84,0,0,1,4.95-6l.18-.15.27-.1,20.88-7.37.26-.1h.35l14-.29h.43l.49.21,12.13,5.21q6.06,2.64,12,5.46l.61.29.33.44a13.85,13.85,0,0,1,1,1.56c.25.47.52.95.73,1.42.46.95.84,1.9,1.21,2.85.68,1.92,1.3,3.83,1.78,5.77s.91,3.86,1.25,5.81l.48,2.91.38,2.93c.25,1.94.34,3.9.52,5.84s.18,3.91.23,5.85,0,3.9,0,5.84-.18,3.89-.3,5.82l-.5,0c-.29-1.92-.54-3.84-.79-5.75l-.82-5.72-.94-5.68c-.37-1.88-.66-3.77-1.1-5.62a107.54,107.54,0,0,0-2.84-11c-.55-1.79-1.21-3.52-1.92-5.21-.38-.82-.74-1.66-1.15-2.43-.19-.41-.41-.76-.62-1.14s-.49-.77-.58-.88l.94.73q-6-2.68-12-5.54l-11.87-5.79.92.21-14-.29.61-.09L806,253l.45-.25a14.91,14.91,0,0,0-4.31,4.83,10.16,10.16,0,0,0-1.12,6.15,9.94,9.94,0,0,0,.34,1.55,7.34,7.34,0,0,0,.24.71l.37.72a27.24,27.24,0,0,0,1.8,2.92,19.93,19.93,0,0,0,4.81,4.8,20.88,20.88,0,0,0,13.16,3.39,37.52,37.52,0,0,0,13.65-3.5Z"/></svg>