<svg id="Capa_1" data-name="Capa 1" xmlns="http://www.w3.org/2000/svg" viewBox="0 0 1280 1024"><defs><style>.cls-1{fill:#fff;}</style></defs><title>ccp.logo.alone.white</title><path class="cls-1" d="M848.77,855.94c-4.25-8.94-8.24-18-12.11-27.08s-7.61-18.26-11.21-27.48c-7.11-18.46-13.74-37.13-19.64-56.07s-11.66-38-14.74-57.71c-.8-4.92-1.43-9.86-2-14.81-.44-5-1-9.92-1.15-14.91a164.44,164.44,0,0,1,1-29.85l.73,0a447.48,447.48,0,0,0,8.64,58.22q3,14.38,6.17,28.75t7,28.65c5.16,19,11.07,37.8,17.47,56.45s13.17,37.2,20.55,55.51Z"/><path class="cls-1" d="M788.88,628c1.22-9,1.92-18.1,2.37-27.17s.53-18.17.09-27.22a219.49,219.49,0,0,0-2.84-26.92A120.56,120.56,0,0,0,781,521l-.21-.5v-.73a21.17,21.17,0,0,0-.23-3.45,25.5,25.5,0,0,0-.76-3.49,19.49,19.49,0,0,0-3.09-6.2,15.81,15.81,0,0,0-5.07-4.45,18.84,18.84,0,0,0-3.11-1.47c-1.08-.42-2.26-.64-3.37-1l-1.14-.35-.68-.81c-2.86-3.45-6.11-6.88-9.37-10.14s-6.66-6.45-10.11-9.55a258.07,258.07,0,0,0-21.57-17.48,173.84,173.84,0,0,0-23.74-14.36,140.6,140.6,0,0,0-26.17-9.92l.12-.72a99.11,99.11,0,0,1,28,6.25c2.27.8,4.47,1.78,6.69,2.7s4.38,2,6.51,3.12,4.26,2.25,6.37,3.42,4.14,2.46,6.16,3.77A156,156,0,0,1,749,473.36a179.65,179.65,0,0,1,19.46,21.34l-1.81-1.16c1.41.46,2.84.82,4.21,1.41a25,25,0,0,1,4,2.08,22.16,22.16,0,0,1,6.57,6.26,25.13,25.13,0,0,1,3.71,8.11,30.21,30.21,0,0,1,.78,4.31,25.57,25.57,0,0,1,.12,4.5l-.2-1.23a125.76,125.76,0,0,1,6.92,27,203.63,203.63,0,0,1,1.87,27.53c0,9.18-.49,18.33-1.3,27.44s-2,18.17-3.7,27.16Z"/><path class="cls-1" d="M793.62,541.91s23.36-68.61,21.9-87.59"/><path class="cls-1" d="M793.28,541.79c1.85-7.33,3.79-14.63,5.55-22,.91-3.66,1.84-7.31,2.7-11s1.78-7.32,2.65-11,1.57-7.35,2.23-11,1.55-7.31,2.58-10.9c2-7.22,4.34-14.16,6.17-21.57l.73-.06A36.51,36.51,0,0,1,817.21,466a83.06,83.06,0,0,1-1.09,11.52,77,77,0,0,1-2.71,11.12c-1.15,3.63-2.47,7.2-3.61,10.82s-2.38,7.21-3.62,10.79-2.56,7.13-3.86,10.68C799.61,528,796.93,535.05,794,542Z"/><path class="cls-1" d="M780.23,502.24c4.72-5.08,9.15-10.44,13.38-15.91a182.75,182.75,0,0,0,11.76-17.07,99,99,0,0,0,8.92-18.46c2.14-6.37,3.52-13.17,2.11-19.41l.06.23a16.11,16.11,0,0,0-1.12-2.24,19,19,0,0,0-1.48-2.18,20.9,20.9,0,0,0-13.2-7.95c-.86-.16-1.75-.23-2.63-.35s-1.92-.15-2.88-.23l-5.8-.43-11.58-.79c-7.72-.5-15.44-.85-23.13-1-3.83,0-7.66,0-11.44.14-1.88.1-3.75.23-5.56.42s-3.79.45-5.68.69c-7.65.95-15.3,2.12-23.33,2.57a45.85,45.85,0,0,1-6.3,0c-.59-.08-1.11-.1-1.75-.23a14.8,14.8,0,0,1-1.79-.42,28.86,28.86,0,0,1-3.12-1.13,33.49,33.49,0,0,1-10.5-7.26,43.56,43.56,0,0,1-4.08-4.75c-.6-.83-1.21-1.67-1.78-2.61l-.43-.68-.36-.76-.7-1.5a61.67,61.67,0,0,1-3.14-11.68,85.3,85.3,0,0,0-2.62-11.11,26.42,26.42,0,0,0-5.68-9.66l.47-.55a25.21,25.21,0,0,1,7.62,9.18,70.68,70.68,0,0,1,4.17,11.14,66.17,66.17,0,0,0,3.94,10.46,22.86,22.86,0,0,0,3,4.2,37,37,0,0,0,3.79,3.82,29.72,29.72,0,0,0,8.87,5.41,21.7,21.7,0,0,0,2.38.74,9.56,9.56,0,0,0,1,.19c.32.05.77.05,1.15.08a51.87,51.87,0,0,0,5.33-.19c7.45-.67,15.16-1.85,22.93-2.65,2-.2,3.88-.39,5.89-.53s4.06-.19,6.06-.21c4,0,7.91.18,11.83.39,7.83.42,15.6,1.1,23.35,1.84l11.6,1.18,5.8.61c1,.11,1.9.2,2.91.33s2.09.29,3.12.52a25.54,25.54,0,0,1,15.71,10.18,24.13,24.13,0,0,1,1.69,2.68,19.2,19.2,0,0,1,1.37,3l0,.11,0,.12a31.48,31.48,0,0,1,0,11.08A52.55,52.55,0,0,1,817.53,452a101.31,101.31,0,0,1-10,18.64A186.26,186.26,0,0,1,795,487.4c-4.5,5.34-9.22,10.47-14.21,15.35Z"/><path class="cls-1" d="M785.07,324.69c-3.11,2.1-6.33,4-9.61,5.77s-6.62,3.47-10,5-6.88,3-10.41,4.22-7.11,2.39-10.73,3.41l-.12,0H744a39.43,39.43,0,0,1-11.61-1.67,23.2,23.2,0,0,1-10.31-6.16,17.89,17.89,0,0,1-3.36-5.25,20.52,20.52,0,0,1-1.41-6,34.41,34.41,0,0,1,1.42-11.88l.18-.61.54-.41c5.58-4.26,11.23-8.34,17.06-12.27,2.91-2,5.87-3.86,8.91-5.68a77.81,77.81,0,0,1,9.57-5,25.34,25.34,0,0,1,2.71-1,19.56,19.56,0,0,1,2.92-.61c1.75-.25,3.5-.47,5.26-.67,3.52-.38,7-.69,10.69-.74a39.15,39.15,0,0,1,5.64.28,12.59,12.59,0,0,1,3.29.85,6.61,6.61,0,0,1,1,.55l.66.47,1.11.85a52,52,0,0,1,8,7.75,36.76,36.76,0,0,1,3.26,4.77,45,45,0,0,1,2.29,5.24l3.86,9.69q3.84,9.71,7.52,19.46c4.91,13,9.5,26.13,14,39.28l.18.53v.36c.15,4.82.17,9.52,0,14.29s-.42,9.49-.93,14.23a111.35,111.35,0,0,1-2.3,14.12,54,54,0,0,1-2.07,6.89,25.26,25.26,0,0,1-3.39,6.36l-.61-.4c2.13-4.1,2.85-8.75,3.42-13.32a136.94,136.94,0,0,0,.76-13.9c0-4.64,0-9.3-.27-14s-.47-9.33-.91-13.89l.19.89c-5.23-12.91-10.42-25.85-15.28-38.9q-3.64-9.79-7.13-19.64l-3.48-9.85a39.32,39.32,0,0,0-1.7-4.39,29,29,0,0,0-2.5-3.92,45.1,45.1,0,0,0-6.75-7l-.94-.77-.39-.3s0,0-.11-.05a7.29,7.29,0,0,0-1.74-.48,31.19,31.19,0,0,0-4.76-.36c-3.32-.05-6.74.14-10.15.42-1.7.14-3.41.31-5.11.51a12.85,12.85,0,0,0-2.2.38,19.65,19.65,0,0,0-2.21.73,73.14,73.14,0,0,0-9,4.41c-3,1.68-5.92,3.46-8.84,5.3-5.83,3.69-11.57,7.6-17.17,11.63l.71-1A30.5,30.5,0,0,0,721,323.77a16.88,16.88,0,0,0,1,5,14.29,14.29,0,0,0,2.57,4.35,20.22,20.22,0,0,0,8.77,5.62A36.48,36.48,0,0,0,744,340.68l-.3,0c3.58-.88,7.15-1.81,10.66-3s7-2.41,10.42-3.8a141,141,0,0,0,19.89-9.87Z"/><path class="cls-1" d="M768.75,357.6a11.43,11.43,0,0,1-5.71-2.54,7.92,7.92,0,0,1-1.85-2.12,6.25,6.25,0,0,1-.68-1.18l-.31-.6-.21-.68c-.68-1.74-.15-3.82-1.06-5.59a16.52,16.52,0,0,0-1.37-3,14,14,0,0,0-2.24-3.28l-.73,0a11.52,11.52,0,0,0-2.18,3.55,13.68,13.68,0,0,0-.69,3.85,9,9,0,0,0,.93,3.84,30.93,30.93,0,0,0,2.13,3.3l-.39.31a5,5,0,0,0-1.26,1.53,2.08,2.08,0,0,0-.14,1.64,13.24,13.24,0,0,1,.5,1.72l.31,1.7.42,1.71c.32,1.14.63,2.28,1.08,3.44l.73.08c.69-1,1.25-2.07,1.82-3.12l.78-1.58.67-1.58a8,8,0,0,1,.7-1.28,14.07,14.07,0,0,0,1.34.56,11.66,11.66,0,0,0,7.52,0Z"/><path class="cls-1" d="M737.93,256.94a25.53,25.53,0,0,1-8.4,2.05,23.94,23.94,0,0,1-4.15,0c-.68-.08-1.35-.13-2-.23l-2-.43a13,13,0,0,1-1.89-.69l-.91-.38-.88-.5c-.58-.31-1.17-.56-1.77-.81a10.84,10.84,0,0,0-1.85-.7c-.66-.15-1.3-.38-2-.59s-1.36-.38-2.1-.53a23.12,23.12,0,0,0-4.79-.85l-.47.56a15.17,15.17,0,0,0,2.38,4.57,22.84,22.84,0,0,0,1.73,1.82c.3.29.62.56.94.84s.69.48,1,.72a9.89,9.89,0,0,0,3.49,1.6,19.26,19.26,0,0,0-1.44,6.54,12.2,12.2,0,0,0,.47,4c.4,1.32.83,2.64,1.13,4l.93,4,1,4c.73,2.64,1.46,5.29,2.33,7.92l.72-.08c.28-2.75.42-5.49.58-8.23l.16-4.11.05-4.09c0-1.36.15-2.74.25-4.11a12.22,12.22,0,0,0-.4-4,20.26,20.26,0,0,0-2.23-5.2c.91.07,1.81.12,2.68.17a24.46,24.46,0,0,0,9.73-1.53,22.54,22.54,0,0,0,8-5Z"/><path class="cls-1" d="M637.46,218.18a34.44,34.44,0,0,1-13.19-1.46,39.71,39.71,0,0,1-11.93-6.08A45.75,45.75,0,0,1,602.9,201a59.31,59.31,0,0,1-6.68-11.68l-.08-.18,0-.22a56.28,56.28,0,0,1-.63-15.17,74,74,0,0,1,1.23-7.49,11.75,11.75,0,0,1,4.52-7.41,25,25,0,0,1,6.82-4.37,22.44,22.44,0,0,1,8.08-1.79,27.87,27.87,0,0,1,8.12.92,43.82,43.82,0,0,1,7.44,2.85l-.4-.18c5.91,2,11.83,4,17.68,6.14q4.39,1.59,8.75,3.31c2.9,1.14,5.8,2.3,8.68,3.51l.8.34.4.42a83.47,83.47,0,0,1,7.3,8.8,71,71,0,0,1,6,9.67c1.75,3.39,4.62,7,5.43,10.78s2.3,7.85.88,11.4l-.71-.19c.39-3.6-3.33-7.07-4.64-10.31a46.8,46.8,0,0,0-2.31-4.72c-.89-1.52-1.84-3-2.83-4.46s-2.09-2.87-3.2-4.25-2.23-2.76-3.42-4.09c-2.36-2.61-4.86-5.28-7.37-7.57l1.2.75c-3-1-5.91-2-8.84-3.05s-5.86-2.14-8.77-3.26c-5.83-2.22-11.59-4.63-17.36-7l-.29-.12-.1-.06a36.12,36.12,0,0,0-6-2.72,22.12,22.12,0,0,0-6.29-1.06,17.82,17.82,0,0,0-11.7,4.31,9.28,9.28,0,0,0-2,2,9.37,9.37,0,0,0-1.08,2.65c-.57,2.13-1.1,4.65-1.45,6.85a52.47,52.47,0,0,0-.06,13.94l-.11-.39a60.59,60.59,0,0,0,5.7,11.35,43.3,43.3,0,0,0,8.33,9.53,37.66,37.66,0,0,0,11,6.42,33.52,33.52,0,0,0,12.59,2.26Z"/><path class="cls-1" d="M668.06,257.6l0-.73a40.51,40.51,0,0,1-7-2.23,41.13,41.13,0,0,1-6.37-3.45l-1.51-1c-.5-.33-1-.73-1.43-1.08a27,27,0,0,1-2.74-2.27,34.8,34.8,0,0,1-2.58-2.42l-2.38-2.6a40.48,40.48,0,0,1-3.87-5.87l-.89-1.5a15.92,15.92,0,0,1-.9-1.49,34.25,34.25,0,0,0-1.85-3c-.72-.94-1.28-2-1.92-3s-1.32-2-2-3a49,49,0,0,0-4.45-6.23l-.71.2a34.94,34.94,0,0,0,.36,7.92c.28,1.28.61,2.55,1,3.82a20.75,20.75,0,0,0,1.34,3.73c2,5,6,8.81,9.74,12.45l3,2.55a38.09,38.09,0,0,0,3.2,2.3,29.46,29.46,0,0,0,3.34,2,26.87,26.87,0,0,0-1.78,8.47,18.5,18.5,0,0,0,.39,5c.37,1.64.78,3.28,1,4.93l.85,5,1,4.94c.68,3.29,1.36,6.58,2.17,9.85l.73-.05c.33-3.36.53-6.71.74-10.06l.24-5,.14-5c0-1.67.2-3.35.33-5a18.07,18.07,0,0,0-.32-5,30.14,30.14,0,0,0-2-6.26l.08,0A38.25,38.25,0,0,0,668.06,257.6Z"/><path class="cls-1" d="M563.24,150.53a27.12,27.12,0,0,1,.59-3.16,20.5,20.5,0,0,1,1-3,13.88,13.88,0,0,1,.62-1.35c.15-.26.35-.58.49-.8a35.53,35.53,0,0,1,10.9-3.75,25.13,25.13,0,0,1,11.85,1,29.59,29.59,0,0,1,10.41,6.42,40.93,40.93,0,0,1,7.76,9.87l.66-.3a40,40,0,0,0-7.11-10.87,31.87,31.87,0,0,0-10.69-7.78,27.57,27.57,0,0,0-13.33-2.09,40,40,0,0,0-13,3.66l-.34.15-.25.28a11.61,11.61,0,0,0-1.41,1.83c-.33.58-.7,1.16-1,1.75A25.87,25.87,0,0,0,559,146a29.85,29.85,0,0,0-.92,3.64,30.76,30.76,0,0,0-.58,3.67,72.94,72.94,0,0,0,0,14.55q.38,3.58.88,7.14c.43,2.35.79,4.73,1.35,7.05s1.12,4.63,1.86,6.89,1.52,4.49,2.3,6.73l.12.34.11.19a46.53,46.53,0,0,0,2.75,4.07c.95,1.28,1.94,2.53,3,3.73a50.1,50.1,0,0,0,5.77,5.51,41.52,41.52,0,0,0-1.38,13.1,30,30,0,0,0,1.4,7.83c.78,2.56,1.86,5.06,2.89,7.54a42.84,42.84,0,0,0,4,7.15,25.2,25.2,0,0,0,5.86,5.89c.15.11.32.19.48.3a19.39,19.39,0,0,0-4.08,7.76c-1.07,3.26-.26,6.74,0,10,.18,1.66.37,3.32.67,5s.69,3.25,1.15,4.85a39.37,39.37,0,0,0,3.78,9.12l.67-.28a55.29,55.29,0,0,1-.85-9.39c0-1.56,0-3.11.09-4.66s.18-3.07.33-4.59a34.67,34.67,0,0,1,.87-4.52,17.18,17.18,0,0,0,.38-2.24,16.93,16.93,0,0,0,.15-2.26,42.17,42.17,0,0,0-.27-4.69c-.11-.9-.23-1.82-.42-2.77a16.28,16.28,0,0,0,12.64.57l-.23-.69a15.53,15.53,0,0,1-7.18-.65,15.34,15.34,0,0,1-5.87-3.69c-3.31-3.24-5.27-7.68-6.65-12.22a34.53,34.53,0,0,1-.8-3.52l-.3-1.78-.22-1.81-.52-3.6c-.23-1.19-.42-2.4-.7-3.6-.73-3.2-1.46-6.44-2.48-9.73a27.73,27.73,0,0,0,6.58,3.05,20.69,20.69,0,0,0,4.8.81,16.92,16.92,0,0,0,4.73-.51l-.07-.73a19.77,19.77,0,0,1-8.16-2.67,22.86,22.86,0,0,1-3.46-2.42,33.44,33.44,0,0,1-3.11-2.86,52.2,52.2,0,0,1-5.37-6.63,58,58,0,0,1-4.2-6.89c-.62-2.12-1.22-4.25-1.91-6.34l-1.89-6.53c-.36-1.08-.61-2.18-.89-3.27l-.88-3.28c-.5-2.19-1-4.39-1.36-6.61a62.45,62.45,0,0,1-.88-13.26A28.89,28.89,0,0,1,563.24,150.53Z"/><path class="cls-1" d="M606.78,296.28a18,18,0,0,1,7.32,1.34,30.78,30.78,0,0,1,6.59,3.66,54.07,54.07,0,0,1,10.54,10.56c3,3.89,6.33,7.74,8.07,12.38a36.34,36.34,0,0,1,2.84,14.64l-.69.25a73.28,73.28,0,0,1-8.67-11.61,50.71,50.71,0,0,1-3.27-6.13,59.22,59.22,0,0,0-3.1-6.23,63.74,63.74,0,0,0-3.76-5.79A44.53,44.53,0,0,0,618.3,304c-3.11-3.31-6.93-6.08-11.57-7Z"/><path class="cls-1" d="M610.79,336.17A86.06,86.06,0,0,1,608.2,325c-.31-1.89-.55-3.81-.71-5.73-.07-1-.13-1.93-.16-2.89a11.15,11.15,0,0,1,0-1.53,12.69,12.69,0,0,1,.22-1.54c.88-3.94,2.88-7.36,3.64-10.8a5,5,0,0,0,.06-2.25,1.94,1.94,0,0,0-1.09-1.32,10.79,10.79,0,0,0-4.86-.73h-.17a11.65,11.65,0,0,1-4.77-1.55,5.57,5.57,0,0,1-2.05-2.16,6.53,6.53,0,0,1-.59-2.72,4.62,4.62,0,0,0-.39-1.46c-.2-.39-.42-.54-.55-.57a1,1,0,0,0-.68.13,4.8,4.8,0,0,0-1.14.87l.18-.2a9.08,9.08,0,0,1-1.87,1.75,10.8,10.8,0,0,1-2.06,1.17,12.85,12.85,0,0,1-4.49,1,17.32,17.32,0,0,1-4.45-.36c-.71-.15-1.4-.36-2.1-.55l-2-.73-.07,0-.39-.24a8.16,8.16,0,0,0-1.09-.52,8.62,8.62,0,0,0-1.32-.37,8.07,8.07,0,0,0-2.73,0,9.5,9.5,0,0,0-2.66.9,13.53,13.53,0,0,0-1.27.74l-1.22.91-1.55,1.16-1.59-1.22a12.75,12.75,0,0,0-1.51-1,15.75,15.75,0,0,0-1.74-.88,15.43,15.43,0,0,0-3.65-1.08,12.67,12.67,0,0,0-7.2.92c-4.58,2-8.12,6.51-10.86,11.32a80.29,80.29,0,0,0-6.37,15.85l-2.37,8.42-2.1,8.5c-.57,2.86-1.26,5.69-1.83,8.56l-.81,4.3c-.3,1.43-.56,2.87-.77,4.31l-.69,4.34c-.23,1.44-.36,2.9-.57,4.35-.43,2.9-.7,5.81-1,8.73-.53,5.84-.9,11.71-1,17.6l0,4.42.07,4.43a78,78,0,0,0,.62,8.81l-.69.23a55.72,55.72,0,0,1-2.35-8.77l-.76-4.45-.6-4.48a160.25,160.25,0,0,1-1-18.07,168.52,168.52,0,0,1,1.07-18.09,162.27,162.27,0,0,1,3-17.91c.7-2.95,1.47-5.88,2.26-8.8s1.81-5.78,2.77-8.66a91.34,91.34,0,0,1,7.78-16.83,43.2,43.2,0,0,1,5.88-7.58,24.57,24.57,0,0,1,8.27-5.69,18,18,0,0,1,10.28-.91,21,21,0,0,1,4.83,1.62,23.62,23.62,0,0,1,2.2,1.22,18.34,18.34,0,0,1,2.14,1.55l-3.14-.06c.55-.39,1.09-.79,1.66-1.15a20,20,0,0,1,1.83-1,14.44,14.44,0,0,1,4.08-1.19,12.8,12.8,0,0,1,4.32.22,13.39,13.39,0,0,1,2.06.67,10.29,10.29,0,0,1,2,1.13l-.45-.26,1.66.67c.55.17,1.11.36,1.67.51a13.31,13.31,0,0,0,3.34.4,9.12,9.12,0,0,0,3.13-.6,6.36,6.36,0,0,0,1.37-.71,6.65,6.65,0,0,0,1.05-.85l.17-.21a8.23,8.23,0,0,1,2.36-1.6,4.35,4.35,0,0,1,5.9,2.36,7.88,7.88,0,0,1,.61,2.7,3.93,3.93,0,0,0,.15,1.49,2.31,2.31,0,0,0,.85,1,8.86,8.86,0,0,0,3.33,1.24h-.17a21.76,21.76,0,0,1,3.07.28,8.76,8.76,0,0,1,3.18,1.1,5,5,0,0,1,1.45,1.29,4.44,4.44,0,0,1,.8,1.81,7.51,7.51,0,0,1-.19,3.41c-1.12,4-3.24,7.17-4.17,10.67a9.64,9.64,0,0,0-.25,1.28,9.22,9.22,0,0,0-.06,1.33c0,.93,0,1.87,0,2.82.07,1.88.19,3.76.39,5.64A84.72,84.72,0,0,0,611.49,336Z"/><path class="cls-1" d="M574.52,378.06a28.88,28.88,0,0,1,6-1.67,13.9,13.9,0,0,1,3.24-.13,5.69,5.69,0,0,1,3.4,1.33l0,0,.16.22c3.66,5.23,9.12,9.56,15,10.8.73.18,1.48.2,2.21.32s1.42,0,2.13.05l.41-.07.55-.1c.37-.08.74-.15,1.11-.25.75-.17,1.47-.42,2.2-.64a17.3,17.3,0,0,0,7.28-4.54,11.58,11.58,0,0,0,2.77-7.06,23.78,23.78,0,0,0-.08-4.12l-.17-1.89a15.46,15.46,0,0,0-.62-1.85,18.41,18.41,0,0,0-5-6.89,27.06,27.06,0,0,0-8.36-4.73l.07-.73a18.74,18.74,0,0,1,10.76,1.44,19.27,19.27,0,0,1,8.67,7.73,19,19,0,0,1,1.37,2.79l.15.43a2.77,2.77,0,0,1,.13.51l.14.72.26,1.45.26,1.45a10.55,10.55,0,0,1,.05,1.49,22,22,0,0,1-.09,3A16.82,16.82,0,0,1,622.74,388a25.19,25.19,0,0,1-10.29,5.18c-.91.2-1.81.42-2.72.55-.46.08-.92.13-1.38.18l-.71.07-.36,0a4,4,0,0,1-.49,0c-1-.09-2-.16-2.92-.3s-1.87-.39-2.76-.7a25.34,25.34,0,0,1-9.39-5.64,32.92,32.92,0,0,1-6.41-8.47l.19.26a3.7,3.7,0,0,0-2.06-1,12.27,12.27,0,0,0-2.81-.22,28.17,28.17,0,0,0-5.88.79Z"/><path class="cls-1" d="M523.23,416.54l-15.29-24.41-.1-.17,0-.23c-1.13-6.58-1.89-13.14-2.48-19.75s-.93-13.22-1.06-19.85-.08-13.28.24-19.92.87-13.27,1.58-19.9l0,.28c.26-9.31.7-18.52,1.59-27.85a81.49,81.49,0,0,1,2.49-14.23l.29-.93.4-1a10.8,10.8,0,0,1,1.06-2.17,11.56,11.56,0,0,1,3.66-3.46,24.73,24.73,0,0,1,7.55-2.92,42.35,42.35,0,0,1,15-.41,39.25,39.25,0,0,1,14,4.87,32.31,32.31,0,0,1,10.66,10,33.93,33.93,0,0,1,5,13.27l-.7.19a39.06,39.06,0,0,0-7-11.41,31,31,0,0,0-10.39-7.49,38.77,38.77,0,0,0-24.8-1.94,17.67,17.67,0,0,0-5.22,2.17,4.53,4.53,0,0,0-1.35,1.2,5.36,5.36,0,0,0-.41.94l-.25.6-.21.73-.44,1.46-.37,1.57c-.27,1-.46,2.13-.68,3.21-.44,2.17-.8,4.4-1.15,6.63-1.39,8.93-2.27,18.09-2.91,27.18l0,.2v.07c-.95,6.45-1.82,12.92-2.32,19.43s-.89,13.05-1,19.59-.05,13.1.18,19.65.67,13.12,1.44,19.59L510,391l13.91,25.22Z"/><path class="cls-1" d="M599.79,409.2a18.48,18.48,0,0,0-.89,4.16,15.85,15.85,0,0,0,.11,4.19,11.14,11.14,0,0,0,1.37,3.81,10.62,10.62,0,0,0,2.66,2.93l.13.11.11.16,11.59,17.11,11.45,17.21-.12-.17a25.49,25.49,0,0,1,3.08,5.44,21.28,21.28,0,0,1,1.57,6.17A15.53,15.53,0,0,1,630,477a16.93,16.93,0,0,1-3.57,5.76l-.18.22-.51.3-11.09,6.62c-3.69,2.22-7.4,4.39-11.19,6.43s-7.62,4-11.48,5.9-7.76,3.74-11.68,5.54l-.41.19h0a5,5,0,0,0-.82.27c-.32.13-.65.29-1,.45a13,13,0,0,0-1.9,1.18,19.22,19.22,0,0,0-3.45,3.14,25.67,25.67,0,0,0-2.81,4,40.12,40.12,0,0,0-2.22,4.56l-.72-.16c.1-.87.16-1.75.28-2.64s.32-1.76.57-2.62a24.84,24.84,0,0,1,2-5.1,22.26,22.26,0,0,1,3.35-4.57,18.61,18.61,0,0,1,2.2-1.94c.4-.3.81-.59,1.25-.86a10,10,0,0,1,1.52-.79l-.44.19c3.62-2.33,7.25-4.66,10.95-6.87s7.37-4.44,11.14-6.51,7.59-4.06,11.44-6l11.54-5.78-.69.52a10.88,10.88,0,0,0,2.51-3.5,10.09,10.09,0,0,0,.79-4.27,16.25,16.25,0,0,0-.92-4.66,20.89,20.89,0,0,0-2.14-4.4l-.12-.17L611.78,443.6l-10.3-17.92.23.27a12.58,12.58,0,0,1-2.92-3.73,12.37,12.37,0,0,1-1.25-4.48,17.19,17.19,0,0,1,.27-4.54,19.6,19.6,0,0,1,1.31-4.28Z"/><path class="cls-1" d="M555.31,887.81l5.36-22,.29.88a50.06,50.06,0,0,1-5-4.46,37.94,37.94,0,0,1-4.32-5.17,19.26,19.26,0,0,1-3-6.36,9.92,9.92,0,0,1,1.1-7.58l-.19.37a29.28,29.28,0,0,0,.91-4.15c.23-1.45.38-2.93.5-4.41a78.91,78.91,0,0,0,.11-9c-.09-3-.39-6-.73-9l-.63-4.47L549,808l.3.8a9.18,9.18,0,0,1-1-2.34,10.34,10.34,0,0,1-.37-2.43,9.21,9.21,0,0,1,1.25-4.86,11.84,11.84,0,0,1,3.17-3.51,19.49,19.49,0,0,1,3.74-2.17l1.68-.14c-.06,0,.14,0,.23,0l.38,0a5.24,5.24,0,0,0,.79,0,5.38,5.38,0,0,0,1.49-.4,6,6,0,0,0,2.41-2,15.18,15.18,0,0,0,2.4-7.26,35,35,0,0,0,.22-4.28c0-1.57.06-3.19.13-4.74.15-3.13.35-6.25.64-9.38a114.06,114.06,0,0,1,3.1-18.75,53.25,53.25,0,0,1,3.36-9.32,28.18,28.18,0,0,1,2.75-4.54,15.74,15.74,0,0,1,4.36-4.08l-.34.24s.27-.22.41-.35.33-.31.49-.48a11.1,11.1,0,0,0,.89-1.06,7.78,7.78,0,0,0,1.17-2.24,5.67,5.67,0,0,0-.51-4.54L582,720c-.28-.61-.76-1.52-1.16-2.31l-1.26-2.48c-.83-1.66-1.67-3.32-2.43-5-1.53-3.41-3-6.85-4.2-10.4a69.73,69.73,0,0,1-2.89-10.88,31.06,31.06,0,0,1-.17-11.25l.72.08a35.5,35.5,0,0,0,2.09,10.51,86.08,86.08,0,0,0,4.18,9.92c1.6,3.22,3.29,6.4,5.12,9.51l2.76,4.66,1.43,2.32c.49.81.94,1.49,1.51,2.49l-.12-.21a12.54,12.54,0,0,1,1.83,4.54,11.86,11.86,0,0,1-.19,5.07,14.43,14.43,0,0,1-1.94,4.39,18.06,18.06,0,0,1-1.37,1.85,14.69,14.69,0,0,1-1.72,1.75l-.06.05-.28.2c-1.52,1-3,3.27-4.14,5.74a53.2,53.2,0,0,0-2.87,8.06,146.34,146.34,0,0,0-3.58,17.56c-.44,3-.81,6-1.08,9-.13,1.52-.27,3-.31,4.49a40.47,40.47,0,0,1-.48,4.93,20.91,20.91,0,0,1-3.91,9.89,11.07,11.07,0,0,1-7.81,4.26,12.82,12.82,0,0,1-1.52,0,8.54,8.54,0,0,1-1.68-.24l1.68-.13a9.86,9.86,0,0,0-4.7,3.37,4.34,4.34,0,0,0-.68,2.27,4.67,4.67,0,0,0,.14,1.27,6.39,6.39,0,0,0,.38,1.13l.26.54,0,.26.67,4.63.52,4.65c.26,3.11.48,6.23.48,9.36a80.15,80.15,0,0,1-.4,9.41c-.17,1.57-.37,3.14-.67,4.71a31.51,31.51,0,0,1-1.22,4.79l-.08.21-.11.15a6.48,6.48,0,0,0-1,4.95,16.6,16.6,0,0,0,2.17,5.55,44.52,44.52,0,0,0,8.12,9.73l.42.4-.14.49L556,888Z"/><path class="cls-1" d="M650.37,822.53a37,37,0,0,1-9.84-8,12.8,12.8,0,0,1-1.74-2.75c-.42-1.09-.62-2.06-1-3-.69-1.91-2-3.5-2.9-5.56a12.48,12.48,0,0,1-.84-3.17c-.07-.54-.12-1.07-.15-1.61a7.25,7.25,0,0,1,.05-1.72,19.79,19.79,0,0,0,.8-6.06,41.18,41.18,0,0,0-2.46-12l0-.25s0,.06,0,0l-.07-.18-.17-.43-.4-.88-.81-1.79c-.54-1.2-1-2.42-1.52-3.67a35.51,35.51,0,0,1-2.07-7.76,12.43,12.43,0,0,1,1.38-8.21,9,9,0,0,1,3.19-3,14.1,14.1,0,0,1,4-1.39H636a12.19,12.19,0,0,0,5-1.58,14.67,14.67,0,0,0,4.12-3.49,19.53,19.53,0,0,0,2.72-4.77c.35-.86.59-1.77.89-2.65l.61-2.75,0,.14c.57-9.14,1.45-18.21,2.81-27.28.7-4.53,1.52-9.05,2.68-13.54a52.5,52.5,0,0,1,2.15-6.69c.95-2.19,1.91-4.49,4.33-6.37l.66,3.06-17.55-2.78H645c-4.91.75-9.78,1.31-14.69,1.78s-9.83.8-14.77.94-9.9.18-14.88-.17a77,77,0,0,1-14.93-2.25l.6.09a5.64,5.64,0,0,1-.71-.08l-.37-.08c-.26,0-.46-.1-.7-.15-.45-.11-.87-.23-1.31-.35-.86-.24-1.71-.51-2.54-.79-1.67-.57-3.32-1.2-4.93-1.9a65.07,65.07,0,0,1-9.33-5,53.14,53.14,0,0,1-15.37-14.63,48,48,0,0,1-5-9.53,50.2,50.2,0,0,1-2.66-10.41,64.82,64.82,0,0,1,.85-21.18l.06-.29.17-.37a57.42,57.42,0,0,0,2.78-7.51,65.13,65.13,0,0,0,1.81-7.91,51,51,0,0,0,.24-16A38.6,38.6,0,0,0,544,572a42.79,42.79,0,0,0-10.68-11.5l-.16-.12-.16-.16c-5.32-5.28-10.49-10.62-15.58-16.09s-10.09-11-14.74-17.13c-1.16-1.54-2.3-3.09-3.37-4.81a30,30,0,0,1-1.55-2.77,17.28,17.28,0,0,1-.7-1.66,15,15,0,0,1-.47-1.87,52.65,52.65,0,0,1-.82-11.93,29,29,0,0,1,1-6.29,14.84,14.84,0,0,1,3.49-6.4,11.33,11.33,0,0,1,3.37-2.41,11.87,11.87,0,0,1,3.89-1,18.74,18.74,0,0,1,6.92.84l-4.81,3,1.42-8.77,4.79,4.27a24,24,0,0,1-3.9.74,20.22,20.22,0,0,1-4.13,0,10.71,10.71,0,0,1-4.78-1.53,8.25,8.25,0,0,1-3.57-4.9l7.15.48a11.87,11.87,0,0,1-.89,1.72,9.8,9.8,0,0,1-1.22,1.59,6,6,0,0,1-.85.8,6.33,6.33,0,0,1-1.13.75,6.17,6.17,0,0,1-3.19.72,7.19,7.19,0,0,1-1.6-.31,7.48,7.48,0,0,1-1.27-.59,5.53,5.53,0,0,1-1-.69c-.27-.23-.58-.48-.81-.72-.39-.45-.84-.94-1.16-1.39l-.9-1.35,5.84.71a12.91,12.91,0,0,1-2.07,1.65,9.11,9.11,0,0,1-2.94,1.24l-.49.09-.58,0a4.9,4.9,0,0,1-1.24-.08,5.56,5.56,0,0,1-2.46-1.1,7,7,0,0,1-2.21-3.29l-2.05-5,5.57.08a4.34,4.34,0,0,1,.71.06l.34.08a2.27,2.27,0,0,1,.43.14,3.84,3.84,0,0,1,1.8,1.42,4.15,4.15,0,0,1,.32.53,3.46,3.46,0,0,1,.17.43,5.22,5.22,0,0,1,.2.87,4.76,4.76,0,0,1,0,1.08,4.92,4.92,0,0,1-.68,1.84,7.14,7.14,0,0,1-1.44,1.74,7,7,0,0,1-4.27,1.8,6.45,6.45,0,0,1-4.65-1.8,9.72,9.72,0,0,1-2.05-2.84l2.78,2a19.43,19.43,0,0,1-2.09-.47,17.28,17.28,0,0,1-2-.71,11.12,11.12,0,0,1-4-2.71,8.3,8.3,0,0,1-1.56-2.6,5.85,5.85,0,0,1-.37-1.55,5.17,5.17,0,0,1-.05-1.51,9.32,9.32,0,0,1,.58-2.64,20.06,20.06,0,0,1,1-2.08l-.51,1.87a1.6,1.6,0,0,0,.05.72l.06.17c0,.06.06.12,0,.07l-.07-.13-.25-.52-.67-1.28-1.38-2.69q-1.36-2.73-2.58-5.57a81.57,81.57,0,0,1-4-11.72,62.32,62.32,0,0,1-1.84-12.34A55.1,55.1,0,0,1,465,426l.12-.72.44-.56a94.1,94.1,0,0,1,7.63-8.62,58.22,58.22,0,0,1,9-7.47,27.53,27.53,0,0,1,5.48-2.84,14.12,14.12,0,0,1,6.78-.84,10.58,10.58,0,0,1,6.27,3.5,19.17,19.17,0,0,1,3.22,5.55l-2.61-1.49a55.22,55.22,0,0,1,7-.36,44.51,44.51,0,0,1,7,.59,25.17,25.17,0,0,1,6.92,2.06,14.38,14.38,0,0,1,5.88,4.89l-.56-.55a59.48,59.48,0,0,1,7.16,5.95,63.37,63.37,0,0,1,6.11,6.88,55,55,0,0,1,5,7.72,49.47,49.47,0,0,1,3.56,8.47l-.11-.23a7.12,7.12,0,0,1,.71,5.55,7.88,7.88,0,0,1-3.49,4.12,19.2,19.2,0,0,1-4.75,1.93,43.72,43.72,0,0,1-4.92,1l-.12-.72a41,41,0,0,0,4.72-1.29,17.54,17.54,0,0,0,4.28-2.09,6.5,6.5,0,0,0,2.64-3.41,5.29,5.29,0,0,0-.72-4l-.06-.09-.06-.15a46.53,46.53,0,0,0-3.83-7.87,51.2,51.2,0,0,0-5.15-7.08,64.48,64.48,0,0,0-6.14-6.23,58,58,0,0,0-6.86-5.27l-.29-.19-.27-.36a10.45,10.45,0,0,0-4.4-3.29A20.57,20.57,0,0,0,514.6,417a39.89,39.89,0,0,0-6.3-.28,49.51,49.51,0,0,0-6.29.56l-1.79.29-.82-1.78a14.75,14.75,0,0,0-2.44-3.93,5.42,5.42,0,0,0-3.29-1.69c-2.49-.29-5.62,1.24-8.37,3.15a52.61,52.61,0,0,0-7.85,6.94,86.27,86.27,0,0,0-6.86,8.17l.56-1.28a49.63,49.63,0,0,0-.51,11,55.23,55.23,0,0,0,1.85,11,73.55,73.55,0,0,0,3.81,10.62c.78,1.73,1.6,3.43,2.5,5.12l1.36,2.55.73,1.34.41.8.1.2s.06.13.1.24l.12.35a6.46,6.46,0,0,1,.28,1.43l0,.41-.55,1.45c-.12.3-.32.62-.4.87s-.16.47-.11.54-.06.08.12.32a4.05,4.05,0,0,0,1.43.88,9.76,9.76,0,0,0,1.12.39,10.66,10.66,0,0,0,1.1.25l1.91.27.86,1.73a2.91,2.91,0,0,0,.48.73,1.11,1.11,0,0,0-.69-.18c-.39,0-.39.12-.33.05s.05-.08,0,.06a2,2,0,0,0-.27.82,3.08,3.08,0,0,0,0,.81,3.16,3.16,0,0,0,.16.74,3.38,3.38,0,0,0,.16.36,2.48,2.48,0,0,0,.27.47,3.42,3.42,0,0,0,1.59,1.26l.36.12.28.07a2.78,2.78,0,0,0,.57,0l3.52-4.88c.06.13.17.21-.26-.22a1.88,1.88,0,0,0-.8-.36l-.32,0-.13,0h0c-.1,0,.14-.05.41-.23a6.71,6.71,0,0,0,.82-.64l3.23-3.14,2.61,3.86.52.77c.17.24.32.36.47.57s.4.17-.27.06a1.46,1.46,0,0,0-.74.14c-.05,0-.09.08-.07,0s0,0,.07-.08a2.13,2.13,0,0,0,.33-.44,5.38,5.38,0,0,0,.29-.54l2.54-8,4.61,8.45c.13.24.07.18.27.33a3.47,3.47,0,0,0,1.53.4,13.65,13.65,0,0,0,2.53-.06,23.31,23.31,0,0,0,2.65-.48l5.77-1.47-1,5.74-1.5,8.75-.72,4.2-4.09-1.23a11.68,11.68,0,0,0-4-.59,3.78,3.78,0,0,0-2.62,1.14,7.69,7.69,0,0,0-1.74,3.3,21.59,21.59,0,0,0-.77,4.67,47.07,47.07,0,0,0,.6,10.23c.08.52.13.56.18.83s.18.55.38.91a20.15,20.15,0,0,0,1.14,2.1c.86,1.44,1.89,2.9,2.94,4.34,4.27,5.78,9.13,11.34,14,16.82s10,10.87,15.13,16.13l-.31-.28a49.2,49.2,0,0,1,12,13.38,44.82,44.82,0,0,1,5.89,17,56.45,56.45,0,0,1-.46,17.75,69.93,69.93,0,0,1-2.08,8.57,61.33,61.33,0,0,1-3.21,8.32l.23-.66a59.29,59.29,0,0,0-1,19.4,45.39,45.39,0,0,0,2.26,9.35,43.36,43.36,0,0,0,4.35,8.56,48.13,48.13,0,0,0,13.83,13.47,61,61,0,0,0,8.62,4.71c1.5.67,3,1.28,4.57,1.83.77.27,1.54.52,2.32.75.38.1.77.23,1.15.32l.54.13.25,0c.07,0,0,0-.07,0l.6.09a73.62,73.62,0,0,0,14,2.27c4.78.4,9.63.42,14.47.34s9.7-.36,14.54-.75,9.7-.89,14.48-1.56l.31,0,.26,0,17.5,3.07,3.94.69-3.29,2.36c-1.25.89-2.38,2.86-3.2,4.82a50.59,50.59,0,0,0-2.12,6.26A134.12,134.12,0,0,0,655,709.18c-1.49,8.92-2.52,18-3.23,27v.15l-.7,3c-.34,1-.62,2-1,2.89a21.89,21.89,0,0,1-3.15,5.32,16.84,16.84,0,0,1-4.84,4,14.06,14.06,0,0,1-6.08,1.74h.18a12.12,12.12,0,0,0-3.4,1.11,6.92,6.92,0,0,0-2.53,2.27c-1.27,1.91-1.47,4.47-1.21,6.94a33.48,33.48,0,0,0,1.85,7.39c.44,1.21.92,2.41,1.43,3.6l.77,1.8.39.91.2.49.09.28a2.27,2.27,0,0,1,.08.46l0-.24a42.42,42.42,0,0,1,2.34,12.52,21.18,21.18,0,0,1-.93,6.33,6.19,6.19,0,0,0,0,1.4c0,.51.06,1,.12,1.52a10.92,10.92,0,0,0,.71,2.89c.72,1.82,2.09,3.55,2.81,5.62.38,1,.6,2.1.93,3a12.88,12.88,0,0,0,1.56,2.57,36.17,36.17,0,0,0,9.48,7.89Z"/><path class="cls-1" d="M534,480.28a15.58,15.58,0,0,0,7.14,1.55,12.38,12.38,0,0,0,3.54-.59,13.3,13.3,0,0,0,3.22-1.5l0,0,.08,0c5.59-2.49,11.25-4.73,17.08-6.67a85.45,85.45,0,0,1,8.94-2.49,31.58,31.58,0,0,1,9.72-.9l-.91.06,15.93-4.85-1.47,4.28c-1.71-2.23-3.12-4.38-4.54-6.65s-2.71-4.56-3.92-6.92-2.39-4.77-3.41-7.24a67,67,0,0,1-2.71-7.58l.12.36c-.83-1.91-1.87-4.06-3-6a49.19,49.19,0,0,0-3.54-5.67,24,24,0,0,0-4.27-4.68,12.59,12.59,0,0,0-5-2.7l-.2,0a37.26,37.26,0,0,1-5.29-2.05,28.4,28.4,0,0,1-4.81-2.89,17,17,0,0,1-4-4.06,10.19,10.19,0,0,1-1.78-5.33l.72-.12a9.92,9.92,0,0,0,2.82,3.93,16,16,0,0,0,4.09,2.51,28,28,0,0,0,4.61,1.62,31.2,31.2,0,0,0,4.72,1l-.2,0a18.14,18.14,0,0,1,8.17,2.94,29.4,29.4,0,0,1,6,5.47,42.14,42.14,0,0,1,4.54,6.38,49.28,49.28,0,0,1,3.4,7l.07.18.05.18c.65,2.36,1.28,4.73,2.07,7.07s1.64,4.67,2.62,6.95,2.07,4.53,3.23,6.73a72,72,0,0,0,3.78,6.33l2.27,3.38-3.74.91L584,474l-.5.13-.41-.07a27.79,27.79,0,0,0-8.36.34c-2.9.48-5.81,1.1-8.72,1.83-5.81,1.46-11.6,3.26-17.26,5.29l.14-.07a15.44,15.44,0,0,1-3.81,1.45,13.53,13.53,0,0,1-4,.33,15.91,15.91,0,0,1-3.89-.72,16.76,16.76,0,0,1-3.6-1.6Z"/><path class="cls-1" d="M777.22,587.3l-1.39-3.16-1.52-3.09a59,59,0,0,0-3.56-5.86,36.29,36.29,0,0,0-4.33-5.21,25.89,25.89,0,0,0-2.53-2.17,12.27,12.27,0,0,0-2.71-1.56l-.22-.08-.14-.12a37.67,37.67,0,0,1-5.32-5.61,39.21,39.21,0,0,1-4.1-6.54,48.78,48.78,0,0,1-2.95-7.14,45.5,45.5,0,0,1-1.77-7.62h0V539a6.57,6.57,0,0,0-1.36-4.06,5,5,0,0,0-1.54-1.28,4,4,0,0,0-.39-.18l-.62-.21-1.31-.45L731,529.15c-7-2.46-13.9-4.95-20.82-7.52s-13.83-5.18-20.71-8c-3.43-1.39-6.87-2.8-10.29-4.33-1.72-.75-3.43-1.56-5.15-2.43-.87-.46-1.72-.88-2.62-1.45l-.67-.4-.72-.51-.37-.27a2.39,2.39,0,0,1-.41-.34c-.31-.3-.62-.61-.9-.93l1.42,1.09a102.3,102.3,0,0,1-12.65-6.06,89.91,89.91,0,0,1-11.64-7.85,61.63,61.63,0,0,1-10-10.18c-.71-1-1.45-1.94-2.13-2.94l-1.85-3.18a33,33,0,0,1-1.57-3.35l-.73-1.7-.56-1.66c-3.11-8.84-4.37-18-6-26.68a71.79,71.79,0,0,0-3.41-12.68,36.44,36.44,0,0,0-6.83-11.2l.49-.54a33.1,33.1,0,0,1,9,10.44,64.44,64.44,0,0,1,5.23,12.85c1.31,4.38,2.47,8.74,3.66,13a127.93,127.93,0,0,0,4.2,12.44c3,7.78,8.72,14,15.3,19.48a101.83,101.83,0,0,0,10.55,7.49A97.69,97.69,0,0,0,672.21,498l1.43,1.09s.06,0,.06.05,0,0,.12.11l.19.14.38.31.5.33c.64.45,1.43.88,2.17,1.31,1.54.85,3.12,1.69,4.75,2.48,3.24,1.6,6.56,3.14,9.91,4.62,6.69,3,13.47,5.81,20.28,8.6s13.63,5.52,20.48,8.21l10.29,4,1.28.49.68.26c.34.14.59.28.86.42a8.77,8.77,0,0,1,2.6,2.32,10.09,10.09,0,0,1,1.87,6.29v-.15a42.48,42.48,0,0,0,1.33,7,45.61,45.61,0,0,0,2.47,6.83,37,37,0,0,0,3.58,6.31,34.79,34.79,0,0,0,4.75,5.47l-.36-.2a13.05,13.05,0,0,1,3.22,2,24.6,24.6,0,0,1,2.63,2.46A34.78,34.78,0,0,1,772,574.4a57.39,57.39,0,0,1,3.33,6.17l1.39,3.21,1.24,3.26Z"/><path class="cls-1" d="M733.91,532a10.26,10.26,0,0,0-3.64,3.53,11.31,11.31,0,0,0-1.62,4.73,16.11,16.11,0,0,0,.32,5c.21.82.46,1.64.7,2.46l1,2.39,0,.08,0,.12a74.85,74.85,0,0,1,1.51,7.47,60.27,60.27,0,0,1,.7,7.62,43.69,43.69,0,0,1-.4,7.8,25.37,25.37,0,0,1-2.42,7.84l.33-1.23a14,14,0,0,1-.18,1.85c-.05.44-.07.84-.08,1.25a13,13,0,0,0,.22,2.45,24.76,24.76,0,0,0,1.65,5.07l.12.26.07.51a38.58,38.58,0,0,0,.8,4,30.91,30.91,0,0,0,1.2,3.78,11.51,11.51,0,0,0,1.63,3,2.43,2.43,0,0,0,.75.66c.17.06.12,0,.1,0l-.69.07c.19-.09.76-.27,1.16-.47a14.6,14.6,0,0,0,1.33-.63A21.85,21.85,0,0,0,741,600a21,21,0,0,0,4.18-4.24,19.29,19.29,0,0,0,1.59-2.59c.22-.46.51-.89.71-1.37l.59-1.46a31.27,31.27,0,0,0,1-3.07l.68-3.24,0,.83a44,44,0,0,1-.33-5.9,40.81,40.81,0,0,1,.37-5.84,28.68,28.68,0,0,1,1.28-5.76,15.89,15.89,0,0,1,2.81-5.18l.63.38a19,19,0,0,0-.89,5.3,39.73,39.73,0,0,0,.19,5.34c.19,1.78.44,3.55.77,5.31s.7,3.56,1.14,5.16l.09.31,0,.52c-.08,1.31-.11,2.64-.26,4a39.35,39.35,0,0,1-.81,4,25.71,25.71,0,0,1-3.36,7.62,23,23,0,0,1-6,6.06,22.35,22.35,0,0,1-3.71,2.12c-.67.27-1.32.56-2,.79l-1.06.32-.56.14-.68.14-.34.08h-.35a7,7,0,0,1-4-1.36,9.35,9.35,0,0,1-2.28-2.44,19.39,19.39,0,0,1-2.17-4.8,37.48,37.48,0,0,1-1.09-4.61c-.26-1.55-.47-3-.61-4.63l.19.77a29.78,29.78,0,0,1-1.63-6.39,17.78,17.78,0,0,1-.11-3.51c0-.59.13-1.18.23-1.73l.21-1.1.19-1,.13-.23a21.45,21.45,0,0,0,2.36-6.19,39.41,39.41,0,0,0,.87-7,67.36,67.36,0,0,0-.09-7.24,68.91,68.91,0,0,0-.83-7.23l.07.2-.82-2.69c-.2-.93-.39-1.85-.54-2.78a18.11,18.11,0,0,1,.11-5.69,12.38,12.38,0,0,1,2.33-5.18,11.28,11.28,0,0,1,4.39-3.47Z"/><path class="cls-1" d="M599.78,584.08a84.5,84.5,0,0,1,4.86,7.18c.74,1.24,1.46,2.5,2.18,3.76s1.33,2.57,2,3.89,1.35,2.61,2,3.94a12.44,12.44,0,0,1,1.21,4.28,17.22,17.22,0,0,1-.16,4.63,17.59,17.59,0,0,1-.63,2.34,11.44,11.44,0,0,1-1.19,2.27h-.73a34.56,34.56,0,0,1-4.39-7.52c-1.14-2.44-1-5.29-1.65-8-.29-1.35-.64-2.7-1-4.06s-.65-2.74-1-4.1c-.68-2.75-1.43-5.49-2.15-8.27Z"/><path class="cls-1" d="M599.42,620.38q11.21-1.39,22.5-1.86c7.53-.31,15.08-.35,22.64,0a136.52,136.52,0,0,1,22.6,2.83,70.2,70.2,0,0,1,11.07,3.39,38.53,38.53,0,0,1,10.29,6l-.92-.48L699.32,633l.2,0,.2.09a30.66,30.66,0,0,1,5,2.91,25.4,25.4,0,0,1,4.41,3.92,17,17,0,0,1,3.26,5.33,13.92,13.92,0,0,1,.74,6.53l0-.4c0,3.08-.05,6.1-.21,9.14s-.42,6.08-.82,9.12a72.81,72.81,0,0,1-4.4,18.21l0,.06-.11.21c-2.45,4.68-4.91,9.36-7.44,14s-5.08,9.27-7.7,13.85q-7.86,13.77-16.06,27.34l-.12.2h0a36.75,36.75,0,0,0-2.2,3.71c-.71,1.32-1.36,2.7-2,4.1A86.46,86.46,0,0,0,669,760c-.81,3-1.62,6-2.15,9.07s-1,6.19-1.37,9.34h-.73c-.11-1.58-.28-3.18-.33-4.78s-.11-3.21,0-4.82a74.77,74.77,0,0,1,.89-9.65,67.42,67.42,0,0,1,2.24-9.52c.48-1.57,1-3.13,1.66-4.67a35.35,35.35,0,0,1,2.26-4.66l-.13.2q7.14-14.16,14.6-28.14c2.5-4.65,5-9.29,7.63-13.88s5.23-9.19,7.89-13.75l-.13.27a52.72,52.72,0,0,0,2.82-7.84,83.17,83.17,0,0,0,1.82-8.41,124.64,124.64,0,0,0,1.61-17.36v-.25l0-.14a8.38,8.38,0,0,0-.31-3.94,11.76,11.76,0,0,0-2.14-3.73,19.83,19.83,0,0,0-3.41-3.23,25.76,25.76,0,0,0-4-2.53l.4.13-11.63-3.11-.56-.15-.37-.33a34,34,0,0,0-9-5.57A66.69,66.69,0,0,0,666.28,625a137.05,137.05,0,0,0-21.92-3.68c-7.43-.69-14.91-1-22.4-1s-15,.2-22.46.78Z"/><path class="cls-1" d="M770.67,459.62l-.24-.62a.78.78,0,0,1,.05-.14l-.43-.46a11.79,11.79,0,0,0-1.2.05,13.54,13.54,0,0,0-5.71-.15,7.88,7.88,0,0,0-3,1.24c-.92.63-1.82,1.3-2.77,1.85l-2.84,1.66-2.8,1.77c-1.85,1.22-3.7,2.43-5.5,3.77l.27.67c2.23-.26,4.4-.66,6.58-1.05l3.25-.65,2.39-.56-.15.37c-.4,1-.75,2.05-1.06,3.07s-.5,2.07-.69,3.1a30.36,30.36,0,0,0-.46,6.23l.72.1c1-1.88,2.09-3.72,3.24-5.5.55-.9,1.15-1.77,1.75-2.63s1.2-1.71,1.84-2.53a18.44,18.44,0,0,1,2.22-2.29,11.78,11.78,0,0,0,1-1.11,6.76,6.76,0,0,0,.81-1.19,27.63,27.63,0,0,0,1.41-2.83A12.84,12.84,0,0,0,770.67,459.62Z"/><path class="cls-1" d="M574.56,352.48a24.14,24.14,0,0,0-8.56.95,21.5,21.5,0,0,0-7.37,3.83,24.09,24.09,0,0,0-5.39,6.09,10.36,10.36,0,0,0-1,1.77l-1,1.81c-.55,1.27-1,2.58-1.49,3.86v0l-.24.47c-1.17,2.29-2.24,4.64-3.46,6.9a51.05,51.05,0,0,1-4.17,6.45,69.75,69.75,0,0,1-4.94,6,47.3,47.3,0,0,1-5.79,5.49l-.63-.38a46.29,46.29,0,0,1,2.23-7.65,73.37,73.37,0,0,1,3.09-7.15,52.68,52.68,0,0,1,3.86-6.68c1.46-2.12,3.07-4.15,4.57-6.24l-.24.49c.77-1.42,1.49-2.85,2.29-4.23l1.36-2a15.13,15.13,0,0,1,1.47-1.93l1.59-1.83c.57-.58,1.21-1.09,1.81-1.63l.92-.8,1-.7a21.9,21.9,0,0,1,2-1.31,23.84,23.84,0,0,1,9-2.95,22.91,22.91,0,0,1,9.19.65Z"/><path class="cls-1" d="M674.84,217.52c2.81-.27,5.6-.56,8.32-1,1.36-.2,2.71-.44,4-.72a38.61,38.61,0,0,0,3.85-.91,14.08,14.08,0,0,0,3.41-1.49,20.59,20.59,0,0,1,2.71-1.32,7.66,7.66,0,0,0,2.12-1.1,8.16,8.16,0,0,0,2-3.29l.7-.21a6,6,0,0,1,2.23,5,8.09,8.09,0,0,1-2.75,5.51,9.48,9.48,0,0,1-4.79,2.32,40,40,0,0,1-4.74.39,44.2,44.2,0,0,1-4.46,0c-1.47-.12-2.91-.28-4.34-.48a58.14,58.14,0,0,1-8.4-1.93Z"/><path class="cls-1" d="M726.15,312.15a104.82,104.82,0,0,0,11.55-.79,49.25,49.25,0,0,0,5.54-1,26.92,26.92,0,0,0,5.08-1.58,7.68,7.68,0,0,0,3.4-2.63,4,4,0,0,0,.38-.65,7.65,7.65,0,0,0,.29-.71,15.38,15.38,0,0,0,.59-1.47,2,2,0,0,0,.15-.48c.09-.16,0-.29.08-.49a3,3,0,0,0-.67-1.51,21.19,21.19,0,0,0-4.09-3.7l.08-.72a9.86,9.86,0,0,1,6.83.1,7.8,7.8,0,0,1,3.42,2.58,7.94,7.94,0,0,1,1.48,4.62,9.61,9.61,0,0,1-.9,4.12,9.38,9.38,0,0,1-1.05,1.87,10.69,10.69,0,0,1-1.5,1.57,16.51,16.51,0,0,1-6.66,3.05,37.89,37.89,0,0,1-12.39.64,67.31,67.31,0,0,1-11.71-2.14Z"/><path class="cls-1" d="M633.22,332.83c3.62,1.57,7.19,3.23,10.77,4.87l-.74-.2a40.77,40.77,0,0,1,8.49.35,31.52,31.52,0,0,1,8.42,2.3,22.64,22.64,0,0,1,7.7,5.4,16.68,16.68,0,0,1,2.78,4.25,15.73,15.73,0,0,1,1.21,4.9l0,.23V355a16.45,16.45,0,0,1-.33,2.75c-.17.85-.41,1.68-.66,2.5A21.18,21.18,0,0,1,668.7,365a16.69,16.69,0,0,1-3.33,3.92,12.42,12.42,0,0,1-4.37,2.5l-.45-.57a34.32,34.32,0,0,0,1.85-4.09,27.17,27.17,0,0,0,1.12-4,38.8,38.8,0,0,0,.59-4c.07-.65.11-1.31.14-2s0-1.38,0-1.79l0,.35a15.9,15.9,0,0,0-1.72-5.79,13.39,13.39,0,0,0-4.88-4.6,31.4,31.4,0,0,0-6.87-2.94,46.85,46.85,0,0,0-7.58-1.59l-.55-.07-.18-.13c-3.23-2.26-6.48-4.48-9.67-6.81Z"/><path class="cls-1" d="M719.34,247.33a55.54,55.54,0,0,1-9.74,4.11,49.53,49.53,0,0,1-10.41,2.17c-7.06.72-14.63-.45-20.87-4.43a31.94,31.94,0,0,1-8.09-7.37,40.55,40.55,0,0,1-3.09-4.52l-.71-1.24c-.24-.51-.41-1-.58-1.42a17.49,17.49,0,0,1-.71-2.83,18.76,18.76,0,0,1,1.64-11.39,25.75,25.75,0,0,1,7.22-8.74l.26-.22.4-.14,30.48-10.77.38-.14H706l20.44-.41h.63l.72.3,17.7,7.62q8.84,3.86,17.55,8l.89.42.48.65a21.7,21.7,0,0,1,1.44,2.27c.35.69.75,1.39,1,2.08.68,1.38,1.24,2.76,1.77,4.16a87.47,87.47,0,0,1,2.6,8.41c.77,2.81,1.33,5.65,1.83,8.49l.7,4.25.55,4.27c.36,2.84.51,5.7.77,8.54s.25,5.69.33,8.53,0,5.69,0,8.53-.25,5.67-.43,8.5l-.73,0c-.42-2.8-.79-5.6-1.15-8.4l-1.2-8.34L770.56,260c-.54-2.74-1-5.5-1.61-8.21a156.49,156.49,0,0,0-4.14-16c-.8-2.61-1.78-5.14-2.81-7.6-.55-1.2-1.07-2.43-1.67-3.56-.29-.59-.61-1.11-.91-1.66s-.71-1.12-.85-1.29l1.37,1.07q-8.81-3.91-17.49-8.09l-17.33-8.44,1.35.29L706,206l.89-.15-30.84,9.67.67-.36a21.79,21.79,0,0,0-6.3,7.05,14.88,14.88,0,0,0-1.63,9,14.32,14.32,0,0,0,.49,2.27,8.56,8.56,0,0,0,.36,1l.54,1.06a37.22,37.22,0,0,0,2.63,4.26,28.81,28.81,0,0,0,7,7c5.46,3.85,12.4,5.32,19.21,5A54.82,54.82,0,0,0,719,246.69Z"/></svg>